<svg width="172" height="60" viewBox="0 0 172 60" fill="none" xmlns="http://www.w3.org/2000/svg">
<mask id="mask0_1238_60" style="mask-type:alpha" maskUnits="userSpaceOnUse" x="0" y="0" width="172" height="60">
<rect width="172" height="60" rx="14" fill="#C4C4C4"/>
</mask>
<g mask="url(#mask0_1238_60)">
<rect width="172" height="60" rx="14" fill="url(#paint0_linear_1238_60)"/>
<rect width="172" height="60" rx="14" fill="url(#paint1_linear_1238_60)"/>
<rect x="4" y="3.93457" width="164" height="52.1311" rx="12" fill="#343536"/>
<path d="M55.8768 12.946H60.4158C60.9824 12.946 61.5038 13.0197 61.9798 13.167C62.4671 13.303 62.8921 13.49 63.2548 13.728C63.6174 13.966 63.9008 14.2494 64.1048 14.578C64.3088 14.9067 64.4108 15.258 64.4108 15.632V25.084C64.4108 25.458 64.3088 25.8094 64.1048 26.138C63.9008 26.4667 63.6174 26.7557 63.2548 27.005C62.8921 27.243 62.4671 27.43 61.9798 27.566C61.5038 27.702 60.9824 27.77 60.4158 27.77H55.8768C55.7634 27.77 55.6671 27.7304 55.5878 27.651C55.5084 27.5717 55.4688 27.4754 55.4688 27.362V13.354C55.4688 13.2407 55.5084 13.1444 55.5878 13.065C55.6671 12.9857 55.7634 12.946 55.8768 12.946ZM60.4158 26.954C60.8464 26.954 61.2544 26.903 61.6398 26.801C62.0251 26.699 62.3594 26.563 62.6428 26.393C62.9374 26.223 63.1698 26.0247 63.3398 25.798C63.5098 25.5714 63.5948 25.3334 63.5948 25.084V15.632C63.5948 15.3827 63.5098 15.1447 63.3398 14.918C63.1698 14.6914 62.9374 14.493 62.6428 14.323C62.3594 14.153 62.0251 14.017 61.6398 13.915C61.2544 13.813 60.8464 13.762 60.4158 13.762H56.2848V26.954H60.4158ZM71.9707 13.354C71.9707 13.2407 72.0104 13.1444 72.0897 13.065C72.169 12.9857 72.2654 12.946 72.3787 12.946C72.492 12.946 72.5884 12.9857 72.6677 13.065C72.747 13.1444 72.7867 13.2407 72.7867 13.354V27.362C72.7867 27.4754 72.747 27.5717 72.6677 27.651C72.5884 27.7304 72.492 27.77 72.3787 27.77C72.2654 27.77 72.169 27.7304 72.0897 27.651C72.0104 27.5717 71.9707 27.4754 71.9707 27.362V13.354ZM84.3495 12.946H85.3015C85.8682 12.946 86.3895 13.0197 86.8655 13.167C87.3528 13.303 87.7778 13.49 88.1405 13.728C88.5032 13.966 88.7865 14.2494 88.9905 14.578C89.1945 14.9067 89.2965 15.258 89.2965 15.632V16.567C89.2965 16.6804 89.2568 16.7767 89.1775 16.856C89.0982 16.9354 89.0018 16.975 88.8885 16.975C88.7752 16.975 88.6788 16.9354 88.5995 16.856C88.5202 16.7767 88.4805 16.6804 88.4805 16.567V15.632C88.4805 15.3827 88.3955 15.1447 88.2255 14.918C88.0555 14.6914 87.8232 14.493 87.5285 14.323C87.2452 14.153 86.9108 14.017 86.5255 13.915C86.1402 13.813 85.7322 13.762 85.3015 13.762H84.3495C83.9188 13.762 83.5108 13.813 83.1255 13.915C82.7402 14.017 82.4002 14.153 82.1055 14.323C81.8222 14.493 81.5955 14.6914 81.4255 14.918C81.2555 15.1447 81.1705 15.3827 81.1705 15.632V25.084C81.1705 25.3334 81.2555 25.5714 81.4255 25.798C81.5955 26.0247 81.8222 26.223 82.1055 26.393C82.4002 26.563 82.7402 26.699 83.1255 26.801C83.5108 26.903 83.9188 26.954 84.3495 26.954H85.3015C85.7322 26.954 86.1402 26.903 86.5255 26.801C86.9108 26.699 87.2452 26.563 87.5285 26.393C87.8232 26.223 88.0555 26.0247 88.2255 25.798C88.3955 25.5714 88.4805 25.3334 88.4805 25.084V20.766H86.8655C86.7522 20.766 86.6558 20.7264 86.5765 20.647C86.4972 20.5677 86.4575 20.4714 86.4575 20.358C86.4575 20.2447 86.4972 20.1484 86.5765 20.069C86.6558 19.9897 86.7522 19.95 86.8655 19.95H88.8885C89.0018 19.95 89.0982 19.9897 89.1775 20.069C89.2568 20.1484 89.2965 20.2447 89.2965 20.358V25.084C89.2965 25.458 89.1945 25.8094 88.9905 26.138C88.7865 26.4667 88.5032 26.7557 88.1405 27.005C87.7778 27.243 87.3528 27.43 86.8655 27.566C86.3895 27.702 85.8682 27.77 85.3015 27.77H84.3495C83.7942 27.77 83.2728 27.702 82.7855 27.566C82.2982 27.43 81.8732 27.243 81.5105 27.005C81.1478 26.7557 80.8645 26.4667 80.6605 26.138C80.4565 25.8094 80.3545 25.458 80.3545 25.084V15.632C80.3545 15.258 80.4565 14.9067 80.6605 14.578C80.8645 14.2494 81.1478 13.966 81.5105 13.728C81.8732 13.49 82.2982 13.303 82.7855 13.167C83.2728 13.0197 83.7942 12.946 84.3495 12.946ZM96.8564 13.354C96.8564 13.2407 96.8961 13.1444 96.9754 13.065C97.0548 12.9857 97.1511 12.946 97.2644 12.946C97.3778 12.946 97.4741 12.9857 97.5534 13.065C97.6328 13.1444 97.6724 13.2407 97.6724 13.354V27.362C97.6724 27.4754 97.6328 27.5717 97.5534 27.651C97.4741 27.7304 97.3778 27.77 97.2644 27.77C97.1511 27.77 97.0548 27.7304 96.9754 27.651C96.8961 27.5717 96.8564 27.4754 96.8564 27.362V13.354ZM105.24 13.354C105.24 13.2407 105.28 13.1444 105.359 13.065C105.439 12.9857 105.535 12.946 105.648 12.946H113.774C113.888 12.946 113.984 12.9857 114.063 13.065C114.143 13.1444 114.182 13.2407 114.182 13.354C114.182 13.4674 114.143 13.5637 114.063 13.643C113.984 13.7224 113.888 13.762 113.774 13.762H110.119V27.362C110.119 27.4754 110.08 27.5717 110 27.651C109.921 27.7304 109.825 27.77 109.711 27.77C109.598 27.77 109.502 27.7304 109.422 27.651C109.343 27.5717 109.303 27.4754 109.303 27.362V13.762H105.648C105.535 13.762 105.439 13.7224 105.359 13.643C105.28 13.5637 105.24 13.4674 105.24 13.354ZM121.827 27.226L126.638 13.779C126.729 13.5297 126.905 13.3314 127.165 13.184C127.437 13.0254 127.755 12.946 128.117 12.946C128.469 12.946 128.78 13.0254 129.052 13.184C129.324 13.3314 129.506 13.5297 129.596 13.779L134.407 27.226C134.441 27.328 134.43 27.43 134.373 27.532C134.328 27.6227 134.254 27.6964 134.152 27.753C134.13 27.7644 134.084 27.77 134.016 27.77C133.835 27.77 133.71 27.6794 133.642 27.498L128.831 14.051C128.809 13.9944 128.729 13.932 128.593 13.864C128.469 13.796 128.31 13.762 128.117 13.762C127.913 13.762 127.749 13.796 127.624 13.864C127.5 13.932 127.426 13.9944 127.403 14.051L122.592 27.498C122.558 27.5887 122.502 27.6567 122.422 27.702C122.354 27.7474 122.281 27.77 122.201 27.77C122.133 27.77 122.088 27.7644 122.065 27.753C121.963 27.6964 121.89 27.6227 121.844 27.532C121.799 27.43 121.793 27.328 121.827 27.226ZM142.046 13.354C142.046 13.2407 142.086 13.1444 142.165 13.065C142.244 12.9857 142.341 12.946 142.454 12.946C142.567 12.946 142.664 12.9857 142.743 13.065C142.822 13.1444 142.862 13.2407 142.862 13.354V26.954H150.563C150.676 26.954 150.773 26.9937 150.852 27.073C150.931 27.1524 150.971 27.2487 150.971 27.362C150.971 27.4754 150.931 27.5717 150.852 27.651C150.773 27.7304 150.676 27.77 150.563 27.77H142.454C142.341 27.77 142.244 27.7304 142.165 27.651C142.086 27.5717 142.046 27.4754 142.046 27.362V13.354ZM56.1406 46.41V36.06C56.1406 35.73 56.2306 35.42 56.4106 35.13C56.5906 34.84 56.8356 34.59 57.1456 34.38C57.4656 34.16 57.8406 33.99 58.2706 33.87C58.7006 33.75 59.1606 33.69 59.6506 33.69H67.6906C68.1806 33.69 68.6406 33.75 69.0706 33.87C69.5006 33.99 69.8706 34.16 70.1806 34.38C70.5006 34.59 70.7506 34.84 70.9306 35.13C71.1106 35.42 71.2006 35.73 71.2006 36.06V46.41C71.2006 46.51 71.1656 46.595 71.0956 46.665C71.0256 46.735 70.9406 46.77 70.8406 46.77C70.7406 46.77 70.6556 46.735 70.5856 46.665C70.5156 46.595 70.4806 46.51 70.4806 46.41V36.06C70.4806 35.83 70.4056 35.615 70.2556 35.415C70.1056 35.215 69.9006 35.04 69.6406 34.89C69.3906 34.74 69.0956 34.625 68.7556 34.545C68.4256 34.455 68.0706 34.41 67.6906 34.41H64.0306V46.41C64.0306 46.51 63.9956 46.595 63.9256 46.665C63.8556 46.735 63.7706 46.77 63.6706 46.77C63.5706 46.77 63.4856 46.735 63.4156 46.665C63.3456 46.595 63.3106 46.51 63.3106 46.41V34.41H59.6506C59.2706 34.41 58.9106 34.455 58.5706 34.545C58.2406 34.625 57.9456 34.74 57.6856 34.89C57.4356 35.04 57.2356 35.215 57.0856 35.415C56.9356 35.615 56.8606 35.83 56.8606 36.06V46.41C56.8606 46.51 56.8256 46.595 56.7556 46.665C56.6856 46.735 56.6006 46.77 56.5006 46.77C56.4006 46.77 56.3156 46.735 56.2456 46.665C56.1756 46.595 56.1406 46.51 56.1406 46.41ZM77.8789 34.05C77.8789 33.95 77.9139 33.865 77.9839 33.795C78.0539 33.725 78.1389 33.69 78.2389 33.69C78.3389 33.69 78.4239 33.725 78.4939 33.795C78.5639 33.865 78.5989 33.95 78.5989 34.05V44.4C78.5989 44.62 78.6739 44.83 78.8239 45.03C78.9739 45.23 79.1739 45.405 79.4239 45.555C79.6839 45.705 79.9789 45.825 80.3089 45.915C80.6489 46.005 81.0089 46.05 81.3889 46.05H82.2589C82.6389 46.05 82.9939 46.005 83.3239 45.915C83.6639 45.825 83.9589 45.705 84.2089 45.555C84.4689 45.405 84.6739 45.23 84.8239 45.03C84.9739 44.83 85.0489 44.62 85.0489 44.4V34.05C85.0489 33.95 85.0839 33.865 85.1539 33.795C85.2239 33.725 85.3089 33.69 85.4089 33.69C85.5089 33.69 85.5939 33.725 85.6639 33.795C85.7339 33.865 85.7689 33.95 85.7689 34.05V44.4C85.7689 44.73 85.6789 45.04 85.4989 45.33C85.3189 45.62 85.0689 45.875 84.7489 46.095C84.4389 46.305 84.0689 46.47 83.6389 46.59C83.2089 46.71 82.7489 46.77 82.2589 46.77H81.3889C80.8989 46.77 80.4389 46.71 80.0089 46.59C79.5789 46.47 79.2039 46.305 78.8839 46.095C78.5739 45.875 78.3289 45.62 78.1489 45.33C77.9689 45.04 77.8789 44.73 77.8789 44.4V34.05ZM92.4395 44.4V43.575C92.4395 43.475 92.4745 43.39 92.5445 43.32C92.6145 43.25 92.6995 43.215 92.7995 43.215C92.8995 43.215 92.9845 43.25 93.0545 43.32C93.1245 43.39 93.1595 43.475 93.1595 43.575V44.4C93.1595 44.62 93.2345 44.83 93.3845 45.03C93.5345 45.23 93.7345 45.405 93.9845 45.555C94.2445 45.705 94.5445 45.825 94.8845 45.915C95.2245 46.005 95.5845 46.05 95.9645 46.05H96.8045C97.1845 46.05 97.5445 46.005 97.8845 45.915C98.2245 45.825 98.5195 45.705 98.7695 45.555C99.0295 45.405 99.2345 45.23 99.3845 45.03C99.5345 44.83 99.6095 44.62 99.6095 44.4V42.24C99.6095 42.01 99.5345 41.795 99.3845 41.595C99.2345 41.395 99.0295 41.22 98.7695 41.07C98.5195 40.92 98.2245 40.805 97.8845 40.725C97.5445 40.635 97.1845 40.59 96.8045 40.59H95.9645C95.4745 40.59 95.0145 40.53 94.5845 40.41C94.1545 40.29 93.7795 40.125 93.4595 39.915C93.1395 39.695 92.8895 39.44 92.7095 39.15C92.5295 38.86 92.4395 38.55 92.4395 38.22V36.06C92.4395 35.73 92.5295 35.42 92.7095 35.13C92.8895 34.84 93.1395 34.59 93.4595 34.38C93.7795 34.17 94.1545 34.005 94.5845 33.885C95.0145 33.755 95.4745 33.69 95.9645 33.69H96.8045C97.3045 33.69 97.7645 33.755 98.1845 33.885C98.6145 34.005 98.9895 34.17 99.3095 34.38C99.6295 34.59 99.8795 34.84 100.059 35.13C100.239 35.42 100.329 35.73 100.329 36.06V36.885C100.329 36.985 100.294 37.07 100.224 37.14C100.154 37.21 100.069 37.245 99.9695 37.245C99.8695 37.245 99.7845 37.21 99.7145 37.14C99.6445 37.07 99.6095 36.985 99.6095 36.885V36.06C99.6095 35.84 99.5345 35.63 99.3845 35.43C99.2345 35.23 99.0295 35.055 98.7695 34.905C98.5195 34.755 98.2245 34.635 97.8845 34.545C97.5445 34.455 97.1845 34.41 96.8045 34.41H95.9645C95.5845 34.41 95.2245 34.455 94.8845 34.545C94.5445 34.635 94.2445 34.755 93.9845 34.905C93.7345 35.055 93.5345 35.23 93.3845 35.43C93.2345 35.63 93.1595 35.84 93.1595 36.06V38.22C93.1595 38.44 93.2345 38.65 93.3845 38.85C93.5345 39.05 93.7345 39.225 93.9845 39.375C94.2445 39.525 94.5445 39.645 94.8845 39.735C95.2245 39.825 95.5845 39.87 95.9645 39.87H96.8045C97.3045 39.87 97.7645 39.935 98.1845 40.065C98.6145 40.185 98.9895 40.35 99.3095 40.56C99.6295 40.77 99.8795 41.02 100.059 41.31C100.239 41.6 100.329 41.91 100.329 42.24V44.4C100.329 44.73 100.239 45.04 100.059 45.33C99.8795 45.62 99.6295 45.875 99.3095 46.095C98.9895 46.305 98.6145 46.47 98.1845 46.59C97.7645 46.71 97.3045 46.77 96.8045 46.77H95.9645C95.4745 46.77 95.0145 46.71 94.5845 46.59C94.1545 46.47 93.7795 46.305 93.4595 46.095C93.1395 45.875 92.8895 45.62 92.7095 45.33C92.5295 45.04 92.4395 44.73 92.4395 44.4ZM110.51 33.69H114.53C114.63 33.69 114.715 33.725 114.785 33.795C114.855 33.865 114.89 33.95 114.89 34.05C114.89 34.15 114.855 34.235 114.785 34.305C114.715 34.375 114.63 34.41 114.53 34.41H110.51C110.13 34.41 109.77 34.455 109.43 34.545C109.1 34.625 108.805 34.74 108.545 34.89C108.295 35.04 108.095 35.215 107.945 35.415C107.795 35.615 107.72 35.83 107.72 36.06V39.87H114.53C114.63 39.87 114.715 39.905 114.785 39.975C114.855 40.045 114.89 40.13 114.89 40.23C114.89 40.33 114.855 40.415 114.785 40.485C114.715 40.555 114.63 40.59 114.53 40.59H107.72V44.4C107.72 44.62 107.795 44.83 107.945 45.03C108.095 45.23 108.295 45.405 108.545 45.555C108.805 45.705 109.1 45.825 109.43 45.915C109.77 46.005 110.13 46.05 110.51 46.05H114.53C114.63 46.05 114.715 46.085 114.785 46.155C114.855 46.225 114.89 46.31 114.89 46.41C114.89 46.51 114.855 46.595 114.785 46.665C114.715 46.735 114.63 46.77 114.53 46.77H110.51C110.02 46.77 109.56 46.71 109.13 46.59C108.7 46.47 108.325 46.305 108.005 46.095C107.695 45.875 107.45 45.62 107.27 45.33C107.09 45.04 107 44.73 107 44.4V36.06C107 35.73 107.09 35.42 107.27 35.13C107.45 34.84 107.695 34.59 108.005 34.38C108.325 34.16 108.7 33.99 109.13 33.87C109.56 33.75 110.02 33.69 110.51 33.69ZM121.561 34.05C121.561 33.95 121.596 33.865 121.666 33.795C121.736 33.725 121.821 33.69 121.921 33.69C122.021 33.69 122.106 33.725 122.176 33.795C122.246 33.865 122.281 33.95 122.281 34.05V44.4C122.281 44.62 122.356 44.83 122.506 45.03C122.656 45.23 122.856 45.405 123.106 45.555C123.366 45.705 123.661 45.825 123.991 45.915C124.331 46.005 124.691 46.05 125.071 46.05H125.941C126.321 46.05 126.676 46.005 127.006 45.915C127.346 45.825 127.641 45.705 127.891 45.555C128.151 45.405 128.356 45.23 128.506 45.03C128.656 44.83 128.731 44.62 128.731 44.4V34.05C128.731 33.95 128.766 33.865 128.836 33.795C128.906 33.725 128.991 33.69 129.091 33.69C129.191 33.69 129.276 33.725 129.346 33.795C129.416 33.865 129.451 33.95 129.451 34.05V44.4C129.451 44.73 129.361 45.04 129.181 45.33C129.001 45.62 128.751 45.875 128.431 46.095C128.121 46.305 127.751 46.47 127.321 46.59C126.891 46.71 126.431 46.77 125.941 46.77H125.071C124.581 46.77 124.121 46.71 123.691 46.59C123.261 46.47 122.886 46.305 122.566 46.095C122.256 45.875 122.011 45.62 121.831 45.33C121.651 45.04 121.561 44.73 121.561 44.4V34.05ZM136.121 46.41V36.06C136.121 35.73 136.211 35.42 136.391 35.13C136.571 34.84 136.816 34.59 137.126 34.38C137.446 34.16 137.821 33.99 138.251 33.87C138.681 33.75 139.141 33.69 139.631 33.69H147.671C148.161 33.69 148.621 33.75 149.051 33.87C149.481 33.99 149.851 34.16 150.161 34.38C150.481 34.59 150.731 34.84 150.911 35.13C151.091 35.42 151.181 35.73 151.181 36.06V46.41C151.181 46.51 151.146 46.595 151.076 46.665C151.006 46.735 150.921 46.77 150.821 46.77C150.721 46.77 150.636 46.735 150.566 46.665C150.496 46.595 150.461 46.51 150.461 46.41V36.06C150.461 35.83 150.386 35.615 150.236 35.415C150.086 35.215 149.881 35.04 149.621 34.89C149.371 34.74 149.076 34.625 148.736 34.545C148.406 34.455 148.051 34.41 147.671 34.41H144.011V46.41C144.011 46.51 143.976 46.595 143.906 46.665C143.836 46.735 143.751 46.77 143.651 46.77C143.551 46.77 143.466 46.735 143.396 46.665C143.326 46.595 143.291 46.51 143.291 46.41V34.41H139.631C139.251 34.41 138.891 34.455 138.551 34.545C138.221 34.625 137.926 34.74 137.666 34.89C137.416 35.04 137.216 35.215 137.066 35.415C136.916 35.615 136.841 35.83 136.841 36.06V46.41C136.841 46.51 136.806 46.595 136.736 46.665C136.666 46.735 136.581 46.77 136.481 46.77C136.381 46.77 136.296 46.735 136.226 46.665C136.156 46.595 136.121 46.51 136.121 46.41Z" fill="white"/>
<path d="M61.9798 13.167L61.6841 14.1223L61.6975 14.1264L61.711 14.1302L61.9798 13.167ZM63.2548 13.728L62.7061 14.5641L62.7061 14.5641L63.2548 13.728ZM64.1048 14.578L63.2551 15.1054L63.2551 15.1054L64.1048 14.578ZM64.1048 26.138L64.9544 26.6654L64.1048 26.138ZM63.2548 27.005L63.8034 27.8411L63.8124 27.8352L63.8213 27.8291L63.2548 27.005ZM61.9798 27.566L61.7109 26.6028L61.705 26.6045L61.9798 27.566ZM55.5877 13.065L54.8806 12.3579L54.8806 12.3579L55.5877 13.065ZM61.6398 26.801L61.3839 25.8343L61.6398 26.801ZM62.6428 26.393L62.143 25.5268L62.1356 25.5311L62.1283 25.5355L62.6428 26.393ZM63.3398 25.798L64.1398 26.398V26.398L63.3398 25.798ZM63.3398 14.918L64.1398 14.318L64.1397 14.318L63.3398 14.918ZM62.6428 14.323L62.1283 15.1805L62.1356 15.1849L62.143 15.1892L62.6428 14.323ZM61.6398 13.915L61.3839 14.8817L61.6398 13.915ZM56.2847 13.762V12.762H55.2847V13.762H56.2847ZM56.2847 26.954H55.2847V27.954H56.2847V26.954ZM55.8767 13.946H60.4158V11.946H55.8767V13.946ZM60.4158 13.946C60.8957 13.946 61.3159 14.0084 61.6841 14.1223L62.2754 12.2117C61.6916 12.031 61.0691 11.946 60.4158 11.946V13.946ZM61.711 14.1302C62.1151 14.243 62.4426 14.3911 62.7061 14.5641L63.8034 12.892C63.3416 12.5889 62.819 12.363 62.2485 12.2038L61.711 14.1302ZM62.7061 14.5641C62.962 14.732 63.1366 14.9145 63.2551 15.1054L64.9544 14.0507C64.6649 13.5842 64.2728 13.2 63.8034 12.892L62.7061 14.5641ZM63.2551 15.1054C63.3644 15.2814 63.4108 15.451 63.4108 15.632H65.4108C65.4108 15.065 65.2531 14.532 64.9544 14.0507L63.2551 15.1054ZM63.4108 15.632V25.084H65.4108V15.632H63.4108ZM63.4108 25.084C63.4108 25.265 63.3644 25.4346 63.2551 25.6107L64.9544 26.6654C65.2531 26.1841 65.4108 25.651 65.4108 25.084H63.4108ZM63.2551 25.6107C63.1334 25.8068 62.9527 25.9992 62.6882 26.181L63.8213 27.8291C64.2822 27.5122 64.6681 27.1266 64.9544 26.6654L63.2551 25.6107ZM62.7061 26.169C62.4426 26.3419 62.1151 26.49 61.711 26.6028L62.2485 28.5292C62.819 28.37 63.3416 28.1441 63.8034 27.8411L62.7061 26.169ZM61.705 26.6045C61.3302 26.7116 60.9026 26.77 60.4158 26.77V28.77C61.0622 28.77 61.6773 28.6924 62.2545 28.5275L61.705 26.6045ZM60.4158 26.77H55.8767V28.77H60.4158V26.77ZM55.8767 26.77C55.9391 26.77 56.0174 26.7815 56.1002 26.8156C56.1833 26.8498 56.2484 26.8975 56.2949 26.9439L54.8806 28.3581C55.1496 28.6271 55.5012 28.77 55.8767 28.77V26.77ZM56.2949 26.9439C56.3413 26.9903 56.389 27.0555 56.4232 27.1385C56.4573 27.2214 56.4688 27.2996 56.4688 27.362H54.4688C54.4688 27.7375 54.6116 28.0891 54.8806 28.3581L56.2949 26.9439ZM56.4688 27.362V13.354H54.4688V27.362H56.4688ZM56.4688 13.354C56.4688 13.4164 56.4573 13.4947 56.4232 13.5775C56.389 13.6606 56.3413 13.7257 56.2949 13.7721L54.8806 12.3579C54.6116 12.6269 54.4688 12.9785 54.4688 13.354H56.4688ZM56.2949 13.7721C56.2484 13.8186 56.1833 13.8662 56.1002 13.9004C56.0174 13.9346 55.9391 13.946 55.8767 13.946V11.946C55.5012 11.946 55.1496 12.0889 54.8806 12.3579L56.2949 13.7721ZM60.4158 27.954C60.9259 27.954 61.4204 27.8935 61.8956 27.7677L61.3839 25.8343C61.0884 25.9125 60.7669 25.954 60.4158 25.954V27.954ZM61.8956 27.7677C62.3538 27.6464 62.7787 27.4777 63.1572 27.2505L62.1283 25.5355C61.9402 25.6484 61.6964 25.7516 61.3839 25.8343L61.8956 27.7677ZM63.1425 27.2592C63.5312 27.035 63.8741 26.7522 64.1398 26.398L62.5398 25.198C62.4654 25.2972 62.3437 25.4111 62.143 25.5268L63.1425 27.2592ZM64.1398 26.398C64.4211 26.0229 64.5948 25.5787 64.5948 25.084H62.5948C62.5948 25.088 62.5984 25.1198 62.5398 25.198L64.1398 26.398ZM64.5948 25.084V15.632H62.5948V25.084H64.5948ZM64.5948 15.632C64.5948 15.1374 64.4211 14.6931 64.1398 14.318L62.5398 15.518C62.5984 15.5963 62.5948 15.628 62.5948 15.632H64.5948ZM64.1397 14.318C63.8741 13.9638 63.5312 13.6811 63.1425 13.4568L62.143 15.1892C62.3437 15.305 62.4654 15.4189 62.5398 15.518L64.1397 14.318ZM63.1572 13.4655C62.7787 13.2384 62.3538 13.0696 61.8956 12.9483L61.3839 14.8817C61.6963 14.9644 61.9402 15.0676 62.1283 15.1805L63.1572 13.4655ZM61.8956 12.9483C61.4204 12.8225 60.9259 12.762 60.4158 12.762V14.762C60.7669 14.762 61.0884 14.8035 61.3839 14.8817L61.8956 12.9483ZM60.4158 12.762H56.2847V14.762H60.4158V12.762ZM55.2847 13.762V26.954H57.2847V13.762H55.2847ZM56.2847 27.954H60.4158V25.954H56.2847V27.954ZM72.0897 13.065L71.3826 12.3579L71.3826 12.3579L72.0897 13.065ZM72.6677 13.065L73.3748 12.3579L73.3748 12.3579L72.6677 13.065ZM72.9707 13.354C72.9707 13.4164 72.9592 13.4947 72.9251 13.5775C72.8909 13.6606 72.8432 13.7257 72.7968 13.7721L71.3826 12.3579C71.1136 12.6269 70.9707 12.9785 70.9707 13.354H72.9707ZM72.7968 13.7721C72.7504 13.8186 72.6853 13.8662 72.6022 13.9004C72.5193 13.9346 72.4411 13.946 72.3787 13.946V11.946C72.0032 11.946 71.6516 12.0889 71.3826 12.3579L72.7968 13.7721ZM72.3787 13.946C72.3163 13.946 72.2381 13.9346 72.1552 13.9004C72.0721 13.8662 72.007 13.8186 71.9606 13.7721L73.3748 12.3579C73.1058 12.0889 72.7542 11.946 72.3787 11.946V13.946ZM71.9606 13.7721C71.9142 13.7257 71.8665 13.6606 71.8323 13.5775C71.7982 13.4947 71.7867 13.4164 71.7867 13.354H73.7867C73.7867 12.9785 73.6438 12.6269 73.3748 12.3579L71.9606 13.7721ZM71.7867 13.354V27.362H73.7867V13.354H71.7867ZM71.7867 27.362C71.7867 27.2996 71.7982 27.2214 71.8323 27.1385C71.8665 27.0555 71.9142 26.9903 71.9606 26.9439L73.3748 28.3581C73.6438 28.0891 73.7867 27.7375 73.7867 27.362H71.7867ZM71.9606 26.9439C72.007 26.8975 72.0721 26.8498 72.1552 26.8156C72.2381 26.7815 72.3163 26.77 72.3787 26.77V28.77C72.7542 28.77 73.1058 28.6271 73.3748 28.3581L71.9606 26.9439ZM72.3787 26.77C72.4411 26.77 72.5193 26.7815 72.6022 26.8156C72.6853 26.8498 72.7504 26.8975 72.7968 26.9439L71.3826 28.3581C71.6516 28.6271 72.0032 28.77 72.3787 28.77V26.77ZM72.7968 26.9439C72.8432 26.9903 72.8909 27.0555 72.9251 27.1385C72.9592 27.2214 72.9707 27.2996 72.9707 27.362H70.9707C70.9707 27.7375 71.1136 28.0891 71.3826 28.3581L72.7968 26.9439ZM72.9707 27.362V13.354H70.9707V27.362H72.9707ZM86.8655 13.167L86.5698 14.1223L86.5832 14.1264L86.5967 14.1302L86.8655 13.167ZM88.1405 13.728L87.5918 14.5641V14.5641L88.1405 13.728ZM88.9905 14.578L88.1409 15.1054V15.1054L88.9905 14.578ZM89.1775 16.856L89.8846 17.5631L89.8846 17.5631L89.1775 16.856ZM88.5995 16.856L87.8924 17.5631L87.8924 17.5631L88.5995 16.856ZM88.2255 14.918L89.0255 14.318V14.318L88.2255 14.918ZM87.5285 14.323L87.014 15.1805L87.0213 15.1849L87.0288 15.1892L87.5285 14.323ZM86.5255 13.915L86.2696 14.8817L86.5255 13.915ZM83.1255 13.915L82.8696 12.9483L83.1255 13.915ZM82.1055 14.323L81.6058 13.4568L81.5983 13.4611L81.591 13.4655L82.1055 14.323ZM81.4255 14.918L80.6255 14.318L81.4255 14.918ZM81.4255 25.798L80.6255 26.398L81.4255 25.798ZM82.1055 26.393L81.591 27.2505L81.5983 27.2549L81.6058 27.2592L82.1055 26.393ZM83.1255 26.801L83.3814 25.8343L83.1255 26.801ZM86.5255 26.801L86.2696 25.8343L86.5255 26.801ZM87.5285 26.393L87.0288 25.5268L87.0213 25.5311L87.014 25.5355L87.5285 26.393ZM88.2255 25.798L89.0255 26.398V26.398L88.2255 25.798ZM88.4805 20.766H89.4805V19.766H88.4805V20.766ZM89.1775 20.069L89.8846 19.3619L89.8846 19.3619L89.1775 20.069ZM88.9905 26.138L89.8401 26.6654L88.9905 26.138ZM88.1405 27.005L88.6891 27.8411L88.6982 27.8352L88.707 27.8291L88.1405 27.005ZM86.8655 27.566L86.5967 26.6028L86.5908 26.6045L86.8655 27.566ZM82.7855 27.566L83.0543 26.6028L82.7855 27.566ZM81.5105 27.005L80.944 27.8291L80.9528 27.8352L80.9618 27.8411L81.5105 27.005ZM80.6605 14.578L81.5101 15.1054V15.1054L80.6605 14.578ZM81.5105 13.728L82.0591 14.5641V14.5641L81.5105 13.728ZM82.7855 13.167L83.0543 14.1302L83.0646 14.1273L83.0749 14.1242L82.7855 13.167ZM84.3495 13.946H85.3015V11.946H84.3495V13.946ZM85.3015 13.946C85.7814 13.946 86.2017 14.0084 86.5698 14.1223L87.1612 12.2117C86.5773 12.031 85.9549 11.946 85.3015 11.946V13.946ZM86.5967 14.1302C87.0009 14.243 87.3283 14.3911 87.5918 14.5641L88.6891 12.892C88.2273 12.5889 87.7048 12.363 87.1343 12.2038L86.5967 14.1302ZM87.5918 14.5641C87.8478 14.732 88.0224 14.9145 88.1409 15.1054L89.8401 14.0507C89.5506 13.5842 89.1586 13.2 88.6891 12.892L87.5918 14.5641ZM88.1409 15.1054C88.2501 15.2814 88.2965 15.451 88.2965 15.632H90.2965C90.2965 15.065 90.1389 14.532 89.8401 14.0507L88.1409 15.1054ZM88.2965 15.632V16.567H90.2965V15.632H88.2965ZM88.2965 16.567C88.2965 16.5046 88.3079 16.4264 88.3421 16.3435C88.3763 16.2605 88.4239 16.1954 88.4704 16.1489L89.8846 17.5631C90.1536 17.2941 90.2965 16.9425 90.2965 16.567H88.2965ZM88.4704 16.1489C88.5168 16.1025 88.5819 16.0548 88.665 16.0206C88.7478 15.9865 88.8261 15.975 88.8885 15.975V17.975C89.264 17.975 89.6156 17.8321 89.8846 17.5631L88.4704 16.1489ZM88.8885 15.975C88.9509 15.975 89.0291 15.9865 89.112 16.0206C89.195 16.0548 89.2602 16.1025 89.3066 16.1489L87.8924 17.5631C88.1614 17.8321 88.513 17.975 88.8885 17.975V15.975ZM89.3066 16.1489C89.353 16.1953 89.4007 16.2605 89.4349 16.3435C89.469 16.4264 89.4805 16.5046 89.4805 16.567H87.4805C87.4805 16.9425 87.6234 17.2941 87.8924 17.5631L89.3066 16.1489ZM89.4805 16.567V15.632H87.4805V16.567H89.4805ZM89.4805 15.632C89.4805 15.1374 89.3068 14.6931 89.0255 14.318L87.4255 15.518C87.4842 15.5963 87.4805 15.628 87.4805 15.632H89.4805ZM89.0255 14.318C88.7599 13.9638 88.4169 13.6811 88.0282 13.4568L87.0288 15.1892C87.2294 15.305 87.3511 15.4189 87.4255 15.518L89.0255 14.318ZM88.043 13.4655C87.6644 13.2384 87.2396 13.0696 86.7814 12.9483L86.2696 14.8817C86.5821 14.9644 86.8259 15.0676 87.014 15.1805L88.043 13.4655ZM86.7814 12.9483C86.3061 12.8225 85.8116 12.762 85.3015 12.762V14.762C85.6527 14.762 85.9742 14.8035 86.2696 14.8817L86.7814 12.9483ZM85.3015 12.762H84.3495V14.762H85.3015V12.762ZM84.3495 12.762C83.8393 12.762 83.3448 12.8225 82.8696 12.9483L83.3814 14.8817C83.6768 14.8035 83.9983 14.762 84.3495 14.762V12.762ZM82.8696 12.9483C82.4131 13.0691 81.9887 13.2359 81.6058 13.4568L82.6052 15.1892C82.8116 15.0701 83.0672 14.9649 83.3814 14.8817L82.8696 12.9483ZM81.591 13.4655C81.2149 13.6912 80.8849 13.9722 80.6255 14.318L82.2255 15.518C82.3061 15.4105 82.4294 15.2949 82.62 15.1805L81.591 13.4655ZM80.6255 14.318C80.3442 14.6931 80.1705 15.1374 80.1705 15.632H82.1705C82.1705 15.628 82.1668 15.5963 82.2255 15.518L80.6255 14.318ZM80.1705 15.632V25.084H82.1705V15.632H80.1705ZM80.1705 25.084C80.1705 25.5787 80.3442 26.0229 80.6255 26.398L82.2255 25.198C82.1668 25.1198 82.1705 25.088 82.1705 25.084H80.1705ZM80.6255 26.398C80.8849 26.7439 81.2149 27.0249 81.591 27.2505L82.62 25.5355C82.4294 25.4212 82.3061 25.3055 82.2255 25.198L80.6255 26.398ZM81.6058 27.2592C81.9887 27.4801 82.4131 27.6469 82.8696 27.7677L83.3814 25.8343C83.0672 25.7511 82.8116 25.6459 82.6052 25.5268L81.6058 27.2592ZM82.8696 27.7677C83.3448 27.8935 83.8393 27.954 84.3495 27.954V25.954C83.9983 25.954 83.6768 25.9125 83.3814 25.8343L82.8696 27.7677ZM84.3495 27.954H85.3015V25.954H84.3495V27.954ZM85.3015 27.954C85.8116 27.954 86.3061 27.8935 86.7814 27.7677L86.2696 25.8343C85.9742 25.9125 85.6527 25.954 85.3015 25.954V27.954ZM86.7814 27.7677C87.2396 27.6464 87.6644 27.4777 88.043 27.2505L87.014 25.5355C86.8259 25.6484 86.5821 25.7516 86.2696 25.8343L86.7814 27.7677ZM88.0282 27.2592C88.4169 27.035 88.7599 26.7522 89.0255 26.398L87.4255 25.198C87.3511 25.2972 87.2294 25.4111 87.0288 25.5268L88.0282 27.2592ZM89.0255 26.398C89.3068 26.0229 89.4805 25.5787 89.4805 25.084H87.4805C87.4805 25.088 87.4842 25.1198 87.4255 25.198L89.0255 26.398ZM89.4805 25.084V20.766H87.4805V25.084H89.4805ZM88.4805 19.766H86.8655V21.766H88.4805V19.766ZM86.8655 19.766C86.9279 19.766 87.0061 19.7775 87.089 19.8116C87.172 19.8458 87.2372 19.8935 87.2836 19.9399L85.8694 21.3541C86.1384 21.6231 86.49 21.766 86.8655 21.766V19.766ZM87.2836 19.9399C87.33 19.9863 87.3777 20.0515 87.4119 20.1345C87.446 20.2174 87.4575 20.2956 87.4575 20.358H85.4575C85.4575 20.7335 85.6004 21.0851 85.8694 21.3541L87.2836 19.9399ZM87.4575 20.358C87.4575 20.4204 87.446 20.4987 87.4119 20.5815C87.3777 20.6646 87.33 20.7297 87.2836 20.7761L85.8694 19.3619C85.6004 19.6309 85.4575 19.9825 85.4575 20.358H87.4575ZM87.2836 20.7761C87.2372 20.8226 87.172 20.8702 87.089 20.9044C87.0061 20.9386 86.9279 20.95 86.8655 20.95V18.95C86.49 18.95 86.1384 19.0929 85.8694 19.3619L87.2836 20.7761ZM86.8655 20.95H88.8885V18.95H86.8655V20.95ZM88.8885 20.95C88.8261 20.95 88.7478 20.9386 88.665 20.9044C88.5819 20.8702 88.5168 20.8226 88.4704 20.7761L89.8846 19.3619C89.6156 19.0929 89.264 18.95 88.8885 18.95V20.95ZM88.4704 20.7761C88.424 20.7297 88.3763 20.6646 88.3421 20.5815C88.3079 20.4987 88.2965 20.4204 88.2965 20.358H90.2965C90.2965 19.9825 90.1536 19.6309 89.8846 19.3619L88.4704 20.7761ZM88.2965 20.358V25.084H90.2965V20.358H88.2965ZM88.2965 25.084C88.2965 25.265 88.2501 25.4346 88.1409 25.6107L89.8401 26.6654C90.1389 26.1841 90.2965 25.651 90.2965 25.084H88.2965ZM88.1409 25.6107C88.0191 25.8068 87.8384 25.9992 87.574 26.181L88.707 27.8291C89.1679 27.5122 89.5539 27.1266 89.8401 26.6654L88.1409 25.6107ZM87.5918 26.169C87.3283 26.3419 87.0009 26.49 86.5967 26.6028L87.1343 28.5292C87.7048 28.37 88.2273 28.1441 88.6891 27.8411L87.5918 26.169ZM86.5908 26.6045C86.2159 26.7116 85.7884 26.77 85.3015 26.77V28.77C85.9479 28.77 86.5631 28.6924 87.1402 28.5275L86.5908 26.6045ZM85.3015 26.77H84.3495V28.77H85.3015V26.77ZM84.3495 26.77C83.8762 26.77 83.446 26.7122 83.0543 26.6028L82.5167 28.5292C83.0996 28.6919 83.7121 28.77 84.3495 28.77V26.77ZM83.0543 26.6028C82.6501 26.49 82.3227 26.3419 82.0591 26.169L80.9618 27.8411C81.4236 28.1441 81.9462 28.37 82.5167 28.5292L83.0543 26.6028ZM82.077 26.181C81.8126 25.9992 81.6319 25.8068 81.5101 25.6107L79.8109 26.6654C80.0971 27.1266 80.4831 27.5122 80.944 27.8291L82.077 26.181ZM81.5101 25.6107C81.4009 25.4346 81.3545 25.265 81.3545 25.084H79.3545C79.3545 25.651 79.5121 26.1841 79.8109 26.6654L81.5101 25.6107ZM81.3545 25.084V15.632H79.3545V25.084H81.3545ZM81.3545 15.632C81.3545 15.451 81.4009 15.2814 81.5101 15.1054L79.8109 14.0507C79.5121 14.532 79.3545 15.065 79.3545 15.632H81.3545ZM81.5101 15.1054C81.6286 14.9145 81.8032 14.732 82.0591 14.5641L80.9618 12.892C80.4924 13.2 80.1004 13.5842 79.8109 14.0507L81.5101 15.1054ZM82.0591 14.5641C82.3227 14.3911 82.6501 14.243 83.0543 14.1302L82.5167 12.2038C81.9462 12.363 81.4236 12.5889 80.9618 12.892L82.0591 14.5641ZM83.0749 14.1242C83.4603 14.0077 83.8834 13.946 84.3495 13.946V11.946C83.705 11.946 83.0854 12.0317 82.4961 12.2098L83.0749 14.1242ZM96.9754 13.065L96.2683 12.3579L96.2683 12.3579L96.9754 13.065ZM97.5534 13.065L98.2606 12.3579L98.2606 12.3579L97.5534 13.065ZM97.8564 13.354C97.8564 13.4164 97.845 13.4947 97.8109 13.5775C97.7767 13.6606 97.729 13.7257 97.6826 13.7721L96.2683 12.3579C95.9993 12.6269 95.8564 12.9785 95.8564 13.354H97.8564ZM97.6826 13.7721C97.6361 13.8186 97.571 13.8662 97.4879 13.9004C97.4051 13.9346 97.3268 13.946 97.2644 13.946V11.946C96.8889 11.946 96.5373 12.0889 96.2683 12.3579L97.6826 13.7721ZM97.2644 13.946C97.202 13.946 97.1238 13.9346 97.0409 13.9004C96.9579 13.8662 96.8928 13.8186 96.8463 13.7721L98.2606 12.3579C97.9916 12.0889 97.64 11.946 97.2644 11.946V13.946ZM96.8463 13.7721C96.7999 13.7257 96.7522 13.6606 96.718 13.5775C96.6839 13.4947 96.6724 13.4164 96.6724 13.354H98.6724C98.6724 12.9785 98.5296 12.6269 98.2606 12.3579L96.8463 13.7721ZM96.6724 13.354V27.362H98.6724V13.354H96.6724ZM96.6724 27.362C96.6724 27.2996 96.6839 27.2214 96.718 27.1385C96.7522 27.0555 96.7999 26.9903 96.8463 26.9439L98.2606 28.3581C98.5296 28.0891 98.6724 27.7375 98.6724 27.362H96.6724ZM96.8463 26.9439C96.8928 26.8975 96.9579 26.8498 97.0409 26.8156C97.1238 26.7815 97.202 26.77 97.2644 26.77V28.77C97.64 28.77 97.9916 28.6271 98.2606 28.3581L96.8463 26.9439ZM97.2644 26.77C97.3268 26.77 97.4051 26.7815 97.4879 26.8156C97.571 26.8498 97.6361 26.8975 97.6826 26.9439L96.2683 28.3581C96.5373 28.6271 96.8889 28.77 97.2644 28.77V26.77ZM97.6826 26.9439C97.729 26.9903 97.7767 27.0555 97.8109 27.1385C97.845 27.2214 97.8564 27.2996 97.8564 27.362H95.8564C95.8564 27.7375 95.9993 28.0891 96.2683 28.3581L97.6826 26.9439ZM97.8564 27.362V13.354H95.8564V27.362H97.8564ZM105.359 13.065L104.652 12.3579L104.652 12.3579L105.359 13.065ZM114.063 13.065L114.77 12.3579L114.77 12.3579L114.063 13.065ZM114.063 13.643L114.77 14.3501L114.77 14.3501L114.063 13.643ZM110.119 13.762V12.762H109.119V13.762H110.119ZM109.422 27.651L108.715 28.3581H108.715L109.422 27.651ZM109.303 13.762H110.303V12.762H109.303V13.762ZM105.359 13.643L104.652 14.3501L104.652 14.3501L105.359 13.643ZM106.24 13.354C106.24 13.4164 106.229 13.4947 106.195 13.5775C106.16 13.6606 106.113 13.7257 106.066 13.7721L104.652 12.3579C104.383 12.6269 104.24 12.9785 104.24 13.354H106.24ZM106.066 13.7721C106.02 13.8186 105.955 13.8662 105.872 13.9004C105.789 13.9346 105.711 13.946 105.648 13.946V11.946C105.273 11.946 104.921 12.0889 104.652 12.3579L106.066 13.7721ZM105.648 13.946H113.774V11.946H105.648V13.946ZM113.774 13.946C113.712 13.946 113.634 13.9346 113.551 13.9004C113.468 13.8662 113.403 13.8186 113.356 13.7721L114.77 12.3579C114.501 12.0889 114.15 11.946 113.774 11.946V13.946ZM113.356 13.7721C113.31 13.7257 113.262 13.6606 113.228 13.5775C113.194 13.4947 113.182 13.4164 113.182 13.354H115.182C115.182 12.9785 115.039 12.6269 114.77 12.3579L113.356 13.7721ZM113.182 13.354C113.182 13.2916 113.194 13.2134 113.228 13.1305C113.262 13.0475 113.31 12.9824 113.356 12.9359L114.77 14.3501C115.039 14.0811 115.182 13.7295 115.182 13.354H113.182ZM113.356 12.9359C113.403 12.8895 113.468 12.8418 113.551 12.8076C113.634 12.7735 113.712 12.762 113.774 12.762V14.762C114.15 14.762 114.501 14.6191 114.77 14.3501L113.356 12.9359ZM113.774 12.762H110.119V14.762H113.774V12.762ZM109.119 13.762V27.362H111.119V13.762H109.119ZM109.119 27.362C109.119 27.2996 109.131 27.2214 109.165 27.1385C109.199 27.0555 109.247 26.9903 109.293 26.9439L110.707 28.3581C110.976 28.0891 111.119 27.7375 111.119 27.362H109.119ZM109.293 26.9439C109.34 26.8975 109.405 26.8498 109.488 26.8156C109.571 26.7815 109.649 26.77 109.711 26.77V28.77C110.087 28.77 110.438 28.6271 110.707 28.3581L109.293 26.9439ZM109.711 26.77C109.774 26.77 109.852 26.7815 109.935 26.8156C110.018 26.8498 110.083 26.8975 110.129 26.9439L108.715 28.3581C108.984 28.6271 109.336 28.77 109.711 28.77V26.77ZM110.129 26.9439C110.176 26.9903 110.223 27.0555 110.258 27.1385C110.292 27.2214 110.303 27.2996 110.303 27.362H108.303C108.303 27.7375 108.446 28.0891 108.715 28.3581L110.129 26.9439ZM110.303 27.362V13.762H108.303V27.362H110.303ZM109.303 12.762H105.648V14.762H109.303V12.762ZM105.648 12.762C105.711 12.762 105.789 12.7735 105.872 12.8076C105.955 12.8418 106.02 12.8895 106.066 12.9359L104.652 14.3501C104.921 14.6191 105.273 14.762 105.648 14.762V12.762ZM106.066 12.9359C106.113 12.9823 106.16 13.0475 106.195 13.1305C106.229 13.2134 106.24 13.2916 106.24 13.354H104.24C104.24 13.7295 104.383 14.0811 104.652 14.3501L106.066 12.9359ZM121.827 27.226L120.886 26.8892L120.882 26.8994L120.879 26.9098L121.827 27.226ZM126.638 13.779L125.698 13.4373L125.697 13.4422L126.638 13.779ZM127.165 13.184L127.657 14.0547L127.669 14.0478L127.165 13.184ZM129.052 13.184L128.548 14.0478L128.562 14.0558L128.576 14.0633L129.052 13.184ZM129.596 13.779L130.538 13.4422L130.536 13.4373L129.596 13.779ZM134.407 27.226L135.356 26.9098L135.352 26.8994L135.349 26.8892L134.407 27.226ZM134.373 27.532L133.499 27.0464L133.488 27.0654L133.479 27.0848L134.373 27.532ZM134.152 27.753L134.599 28.6474L134.619 28.6377L134.638 28.6272L134.152 27.753ZM133.642 27.498L132.701 27.8349L132.703 27.842L132.706 27.8491L133.642 27.498ZM128.831 14.051L129.773 13.7142L129.767 13.6968L129.76 13.6796L128.831 14.051ZM128.593 13.864L128.114 14.7419L128.13 14.7505L128.146 14.7584L128.593 13.864ZM127.624 13.864L128.103 14.7419L128.103 14.7419L127.624 13.864ZM127.403 14.051L126.475 13.6796L126.468 13.6968L126.462 13.7142L127.403 14.051ZM122.592 27.498L123.529 27.8491L123.531 27.842L123.534 27.8349L122.592 27.498ZM122.422 27.702L121.926 26.8338L121.896 26.8509L121.867 26.87L122.422 27.702ZM122.065 27.753L121.58 28.6272L121.599 28.6377L121.618 28.6474L122.065 27.753ZM121.844 27.532L120.93 27.9382L120.94 27.9589L120.95 27.9792L121.844 27.532ZM122.769 27.5629L127.58 14.1159L125.697 13.4422L120.886 26.8892L122.769 27.5629ZM127.578 14.1208C127.58 14.1141 127.582 14.1112 127.587 14.1063C127.592 14.1001 127.611 14.0808 127.657 14.0546L126.673 12.3135C126.233 12.562 125.881 12.935 125.698 13.4373L127.578 14.1208ZM127.669 14.0478C127.766 13.9911 127.904 13.946 128.117 13.946V11.946C127.605 11.946 127.108 12.0596 126.661 12.3202L127.669 14.0478ZM128.117 13.946C128.312 13.946 128.446 13.9884 128.548 14.0478L129.556 12.3202C129.114 12.0624 128.625 11.946 128.117 11.946V13.946ZM128.576 14.0633C128.628 14.0918 128.649 14.1126 128.654 14.118C128.657 14.1209 128.657 14.1218 128.657 14.1208C128.656 14.1198 128.656 14.1195 128.656 14.1208L130.536 13.4373C130.348 12.9206 129.978 12.548 129.528 12.3047L128.576 14.0633ZM128.655 14.1159L133.466 27.5629L135.349 26.8892L130.538 13.4422L128.655 14.1159ZM133.459 27.5422C133.432 27.4627 133.419 27.3683 133.43 27.2686C133.441 27.171 133.472 27.0955 133.499 27.0464L135.247 28.0177C135.427 27.694 135.487 27.3021 135.356 26.9098L133.459 27.5422ZM133.479 27.0848C133.537 26.9691 133.62 26.9048 133.667 26.8789L134.638 28.6272C134.889 28.4879 135.119 28.2763 135.268 27.9792L133.479 27.0848ZM133.705 26.8586C133.784 26.8191 133.851 26.7997 133.888 26.7903C133.929 26.7803 133.96 26.7757 133.977 26.7735C134.01 26.7694 134.027 26.77 134.016 26.77V28.77C134.074 28.77 134.147 28.7678 134.225 28.758C134.285 28.7506 134.436 28.7292 134.599 28.6474L133.705 26.8586ZM134.016 26.77C134.098 26.77 134.238 26.7935 134.375 26.8933C134.507 26.9894 134.561 27.1012 134.579 27.1469L132.706 27.8491C132.791 28.0762 132.942 28.3239 133.199 28.5108C133.46 28.7012 133.753 28.77 134.016 28.77V26.77ZM134.584 27.1612L129.773 13.7142L127.89 14.3879L132.701 27.8349L134.584 27.1612ZM129.76 13.6796C129.653 13.414 129.47 13.2521 129.373 13.1755C129.26 13.0873 129.142 13.0202 129.04 12.9696L128.146 14.7584C128.181 14.7758 128.17 14.7739 128.137 14.7481C128.119 14.7341 128.084 14.7049 128.044 14.6582C128.005 14.6123 127.947 14.5342 127.903 14.4224L129.76 13.6796ZM129.072 12.9861C128.757 12.8145 128.42 12.762 128.117 12.762V14.762C128.136 14.762 128.15 14.7629 128.159 14.7637C128.168 14.7646 128.172 14.7655 128.171 14.7653C128.17 14.765 128.148 14.76 128.114 14.7419L129.072 12.9861ZM128.117 12.762C127.814 12.762 127.467 12.8106 127.145 12.9861L128.103 14.7419C128.065 14.7628 128.041 14.7673 128.044 14.7668C128.045 14.7666 128.051 14.7653 128.064 14.7642C128.076 14.763 128.094 14.762 128.117 14.762V12.762ZM127.145 12.9861C127.049 13.0389 126.936 13.1083 126.829 13.1984C126.733 13.2799 126.572 13.4361 126.475 13.6796L128.332 14.4224C128.292 14.5214 128.243 14.5925 128.207 14.6367C128.171 14.6812 128.139 14.7102 128.121 14.7252C128.089 14.7529 128.075 14.7572 128.103 14.7419L127.145 12.9861ZM126.462 13.7142L121.651 27.1612L123.534 27.8349L128.345 14.3879L126.462 13.7142ZM121.656 27.1469C121.675 27.097 121.706 27.0368 121.756 26.9768C121.806 26.9162 121.866 26.8684 121.926 26.8338L122.918 28.5703C123.213 28.4019 123.418 28.1442 123.529 27.8491L121.656 27.1469ZM121.867 26.87C121.959 26.8093 122.077 26.77 122.201 26.77V28.77C122.484 28.77 122.75 28.6854 122.977 28.5341L121.867 26.87ZM122.201 26.77C122.191 26.77 122.207 26.7694 122.24 26.7735C122.258 26.7757 122.289 26.7803 122.329 26.7903C122.366 26.7997 122.433 26.8191 122.512 26.8586L121.618 28.6474C121.782 28.7292 121.932 28.7506 121.992 28.758C122.071 28.7678 122.144 28.77 122.201 28.77V26.77ZM122.551 26.8789C122.598 26.9048 122.681 26.9691 122.739 27.0848L120.95 27.9792C121.098 28.2763 121.329 28.4879 121.58 28.6272L122.551 26.8789ZM122.758 27.1259C122.78 27.1754 122.8 27.2428 122.804 27.3235C122.809 27.405 122.797 27.48 122.776 27.5422L120.879 26.9098C120.762 27.2583 120.788 27.6177 120.93 27.9382L122.758 27.1259ZM142.165 13.065L141.458 12.3579L141.458 12.3579L142.165 13.065ZM142.743 13.065L143.45 12.3579V12.3579L142.743 13.065ZM142.862 26.954H141.862V27.954H142.862V26.954ZM150.852 27.073L150.145 27.7801V27.7801L150.852 27.073ZM150.852 27.651L150.145 26.9439V26.9439L150.852 27.651ZM143.046 13.354C143.046 13.4164 143.034 13.4947 143 13.5775C142.966 13.6606 142.918 13.7257 142.872 13.7721L141.458 12.3579C141.189 12.6269 141.046 12.9785 141.046 13.354H143.046ZM142.872 13.7721C142.826 13.8186 142.76 13.8662 142.677 13.9004C142.595 13.9346 142.516 13.946 142.454 13.946V11.946C142.078 11.946 141.727 12.0889 141.458 12.3579L142.872 13.7721ZM142.454 13.946C142.392 13.946 142.313 13.9346 142.23 13.9004C142.147 13.8662 142.082 13.8186 142.036 13.7721L143.45 12.3579C143.181 12.0889 142.829 11.946 142.454 11.946V13.946ZM142.036 13.7721C141.989 13.7257 141.942 13.6606 141.907 13.5775C141.873 13.4947 141.862 13.4164 141.862 13.354H143.862C143.862 12.9785 143.719 12.6269 143.45 12.3579L142.036 13.7721ZM141.862 13.354V26.954H143.862V13.354H141.862ZM142.862 27.954H150.563V25.954H142.862V27.954ZM150.563 27.954C150.501 27.954 150.422 27.9426 150.339 27.9084C150.256 27.8742 150.191 27.8266 150.145 27.7801L151.559 26.3659C151.29 26.0969 150.938 25.954 150.563 25.954V27.954ZM150.145 27.7801C150.098 27.7337 150.051 27.6686 150.016 27.5855C149.982 27.5027 149.971 27.4244 149.971 27.362H151.971C151.971 26.9865 151.828 26.6349 151.559 26.3659L150.145 27.7801ZM149.971 27.362C149.971 27.2996 149.982 27.2214 150.016 27.1385C150.051 27.0555 150.098 26.9903 150.145 26.9439L151.559 28.3581C151.828 28.0891 151.971 27.7375 151.971 27.362H149.971ZM150.145 26.9439C150.191 26.8975 150.256 26.8498 150.339 26.8156C150.422 26.7815 150.501 26.77 150.563 26.77V28.77C150.938 28.77 151.29 28.6271 151.559 28.3581L150.145 26.9439ZM150.563 26.77H142.454V28.77H150.563V26.77ZM142.454 26.77C142.516 26.77 142.595 26.7815 142.677 26.8156C142.76 26.8498 142.826 26.8975 142.872 26.9439L141.458 28.3581C141.727 28.6271 142.078 28.77 142.454 28.77V26.77ZM142.872 26.9439C142.918 26.9903 142.966 27.0555 143 27.1385C143.034 27.2214 143.046 27.2996 143.046 27.362H141.046C141.046 27.7375 141.189 28.0891 141.458 28.3581L142.872 26.9439ZM143.046 27.362V13.354H141.046V27.362H143.046ZM56.4106 35.13L57.2603 35.6574L57.2603 35.6574L56.4106 35.13ZM57.1456 34.38L57.7065 35.208L57.7122 35.2041L57.1456 34.38ZM58.2706 33.87L58.5394 34.8332H58.5394L58.2706 33.87ZM69.0706 33.87L68.8018 34.8332L69.0706 33.87ZM70.1806 34.38L69.6019 35.1955L69.6167 35.2061L69.632 35.2161L70.1806 34.38ZM70.9306 35.13L70.081 35.6574V35.6574L70.9306 35.13ZM71.0956 46.665L70.3885 45.9579H70.3885L71.0956 46.665ZM70.5856 46.665L71.2927 45.9579H71.2927L70.5856 46.665ZM69.6406 34.89L69.1261 35.7475L69.1335 35.7519L69.1409 35.7562L69.6406 34.89ZM68.7556 34.545L68.4925 35.5098L68.5095 35.5144L68.5266 35.5184L68.7556 34.545ZM64.0306 34.41V33.41H63.0306V34.41H64.0306ZM63.9256 46.665L64.6327 47.3721L64.6327 47.3721L63.9256 46.665ZM63.3106 34.41H64.3106V33.41H63.3106V34.41ZM58.5706 34.545L58.8062 35.5169L58.8164 35.5144L58.8265 35.5117L58.5706 34.545ZM57.6856 34.89L57.1859 34.0238L57.1785 34.0281L57.1711 34.0325L57.6856 34.89ZM56.7556 46.665L56.0485 45.9579L56.7556 46.665ZM57.1406 46.41V36.06H55.1406V46.41H57.1406ZM57.1406 36.06C57.1406 35.923 57.175 35.7948 57.2603 35.6574L55.561 34.6027C55.2862 35.0453 55.1406 35.537 55.1406 36.06H57.1406ZM57.2603 35.6574C57.3593 35.4979 57.5014 35.3469 57.7065 35.2079L56.5848 33.5521C56.1699 33.8332 55.822 34.1821 55.561 34.6027L57.2603 35.6574ZM57.7122 35.2041C57.9288 35.0551 58.2 34.9279 58.5394 34.8332L58.0018 32.9068C57.4812 33.0521 57.0025 33.2649 56.5791 33.556L57.7122 35.2041ZM58.5394 34.8332C58.8738 34.7399 59.2427 34.69 59.6506 34.69V32.69C59.0785 32.69 58.5274 32.7602 58.0018 32.9068L58.5394 34.8332ZM59.6506 34.69H67.6906V32.69H59.6506V34.69ZM67.6906 34.69C68.0985 34.69 68.4674 34.7399 68.8018 34.8332L69.3394 32.9068C68.8138 32.7602 68.2627 32.69 67.6906 32.69V34.69ZM68.8018 34.8332C69.1397 34.9275 69.4007 35.0528 69.6019 35.1955L70.7594 33.5645C70.3405 33.2673 69.8615 33.0525 69.3394 32.9068L68.8018 34.8332ZM69.632 35.2161C69.8452 35.356 69.9865 35.5052 70.081 35.6574L71.7803 34.6027C71.5147 34.1749 71.156 33.824 70.7293 33.544L69.632 35.2161ZM70.081 35.6574C70.1663 35.7948 70.2006 35.923 70.2006 36.06H72.2006C72.2006 35.537 72.055 35.0453 71.7803 34.6027L70.081 35.6574ZM70.2006 36.06V46.41H72.2006V36.06H70.2006ZM70.2006 46.41C70.2006 46.341 70.2132 46.2565 70.2497 46.168C70.2862 46.0793 70.3374 46.009 70.3885 45.9579L71.8027 47.3721C72.0624 47.1125 72.2006 46.7722 72.2006 46.41H70.2006ZM70.3885 45.9579C70.4396 45.9068 70.5099 45.8556 70.5986 45.8191C70.6871 45.7826 70.7716 45.77 70.8406 45.77V47.77C71.2028 47.77 71.5431 47.6318 71.8027 47.3721L70.3885 45.9579ZM70.8406 45.77C70.9097 45.77 70.9941 45.7826 71.0826 45.8191C71.1713 45.8556 71.2416 45.9068 71.2927 45.9579L69.8785 47.3721C70.1382 47.6318 70.4784 47.77 70.8406 47.77V45.77ZM71.2927 45.9579C71.3438 46.009 71.395 46.0793 71.4316 46.168C71.468 46.2565 71.4806 46.341 71.4806 46.41H69.4806C69.4806 46.7722 69.6189 47.1125 69.8785 47.3721L71.2927 45.9579ZM71.4806 46.41V36.06H69.4806V46.41H71.4806ZM71.4806 36.06C71.4806 35.5945 71.3235 35.1722 71.0556 34.815L69.4556 36.015C69.4749 36.0408 69.4797 36.0542 69.4802 36.0556C69.4806 36.0568 69.4805 36.0569 69.4805 36.0565C69.4804 36.0562 69.4806 36.0571 69.4806 36.06H71.4806ZM71.0556 34.815C70.81 34.4875 70.4944 34.2281 70.1403 34.0238L69.1409 35.7562C69.3069 35.852 69.4013 35.9425 69.4556 36.015L71.0556 34.815ZM70.1551 34.0325C69.801 33.8201 69.406 33.6707 68.9847 33.5716L68.5266 35.5184C68.7853 35.5793 68.9802 35.66 69.1261 35.7475L70.1551 34.0325ZM69.0187 33.5803C68.5941 33.4644 68.1498 33.41 67.6906 33.41V35.41C67.9915 35.41 68.2572 35.4456 68.4925 35.5098L69.0187 33.5803ZM67.6906 33.41H64.0306V35.41H67.6906V33.41ZM63.0306 34.41V46.41H65.0306V34.41H63.0306ZM63.0306 46.41C63.0306 46.341 63.0432 46.2565 63.0797 46.168C63.1162 46.0793 63.1674 46.009 63.2185 45.9579L64.6327 47.3721C64.8924 47.1125 65.0306 46.7722 65.0306 46.41H63.0306ZM63.2185 45.9579C63.2696 45.9068 63.3399 45.8556 63.4286 45.8191C63.5171 45.7826 63.6016 45.77 63.6706 45.77V47.77C64.0328 47.77 64.3731 47.6318 64.6327 47.3721L63.2185 45.9579ZM63.6706 45.77C63.7397 45.77 63.8241 45.7826 63.9126 45.8191C64.0013 45.8556 64.0716 45.9068 64.1227 45.9579L62.7085 47.3721C62.9682 47.6318 63.3084 47.77 63.6706 47.77V45.77ZM64.1227 45.9579C64.1738 46.009 64.225 46.0793 64.2616 46.168C64.298 46.2565 64.3106 46.341 64.3106 46.41H62.3106C62.3106 46.7722 62.4489 47.1125 62.7085 47.3721L64.1227 45.9579ZM64.3106 46.41V34.41H62.3106V46.41H64.3106ZM63.3106 33.41H59.6506V35.41H63.3106V33.41ZM59.6506 33.41C59.1911 33.41 58.7446 33.4645 58.3147 33.5783L58.8265 35.5117C59.0766 35.4455 59.3501 35.41 59.6506 35.41V33.41ZM58.335 33.5732C57.9243 33.6727 57.5385 33.8204 57.1859 34.0238L58.1853 35.7562C58.3528 35.6596 58.5569 35.5773 58.8062 35.5169L58.335 33.5732ZM57.1711 34.0325C56.8284 34.2382 56.525 34.4958 56.2856 34.815L57.8856 36.015C57.9462 35.9342 58.0429 35.8419 58.2001 35.7475L57.1711 34.0325ZM56.2856 34.815C56.0178 35.1722 55.8606 35.5945 55.8606 36.06H57.8606C57.8606 36.0571 57.8608 36.0562 57.8608 36.0565C57.8607 36.0569 57.8607 36.0568 57.8611 36.0556C57.8616 36.0542 57.8663 36.0408 57.8856 36.015L56.2856 34.815ZM55.8606 36.06V46.41H57.8606V36.06H55.8606ZM55.8606 46.41C55.8606 46.341 55.8732 46.2565 55.9097 46.168C55.9462 46.0793 55.9974 46.009 56.0485 45.9579L57.4627 47.3721C57.7224 47.1125 57.8606 46.7722 57.8606 46.41H55.8606ZM56.0485 45.9579C56.0996 45.9068 56.1699 45.8556 56.2586 45.8191C56.3471 45.7826 56.4316 45.77 56.5006 45.77V47.77C56.8628 47.77 57.2031 47.6318 57.4627 47.3721L56.0485 45.9579ZM56.5006 45.77C56.5697 45.77 56.6541 45.7826 56.7426 45.8191C56.8313 45.8556 56.9016 45.9068 56.9527 45.9579L55.5385 47.3721C55.7982 47.6318 56.1384 47.77 56.5006 47.77V45.77ZM56.9527 45.9579C57.0038 46.009 57.055 46.0793 57.0916 46.168C57.128 46.2565 57.1406 46.341 57.1406 46.41H55.1406C55.1406 46.7722 55.2789 47.1125 55.5385 47.3721L56.9527 45.9579ZM77.9839 33.795L77.2768 33.0879L77.2768 33.0879L77.9839 33.795ZM78.4939 33.795L79.201 33.0879L79.201 33.0879L78.4939 33.795ZM79.4239 45.555L78.9094 46.4125L78.9168 46.4169L78.9242 46.4212L79.4239 45.555ZM80.3089 45.915L80.0458 46.8798L80.053 46.8817L80.3089 45.915ZM83.3239 45.915L83.068 44.9483L83.0608 44.9503L83.3239 45.915ZM84.2089 45.555L83.7092 44.6888L83.7018 44.6931L83.6944 44.6975L84.2089 45.555ZM84.8239 45.03L85.6239 45.63V45.63L84.8239 45.03ZM85.1539 33.795L84.4468 33.0879L84.4468 33.0879L85.1539 33.795ZM85.6639 33.795L86.371 33.0879L86.371 33.0879L85.6639 33.795ZM85.4989 45.33L86.3485 45.8574L85.4989 45.33ZM84.7489 46.095L85.3098 46.923L85.3154 46.9191L84.7489 46.095ZM83.6389 46.59L83.3701 45.6268L83.6389 46.59ZM78.8839 46.095L78.3052 46.9105L78.32 46.9211L78.3352 46.9311L78.8839 46.095ZM78.8789 34.05C78.8789 34.1191 78.8663 34.2035 78.8298 34.292C78.7933 34.3807 78.7421 34.451 78.691 34.5021L77.2768 33.0879C77.0171 33.3476 76.8789 33.6878 76.8789 34.05H78.8789ZM78.691 34.5021C78.6399 34.5532 78.5696 34.6044 78.4809 34.6409C78.3924 34.6774 78.308 34.69 78.2389 34.69V32.69C77.8767 32.69 77.5365 32.8282 77.2768 33.0879L78.691 34.5021ZM78.2389 34.69C78.1698 34.69 78.0854 34.6774 77.9969 34.6409C77.9082 34.6044 77.8379 34.5532 77.7868 34.5021L79.201 33.0879C78.9413 32.8282 78.6011 32.69 78.2389 32.69V34.69ZM77.7868 34.5021C77.7357 34.451 77.6845 34.3807 77.648 34.292C77.6115 34.2035 77.5989 34.1191 77.5989 34.05H79.5989C79.5989 33.6878 79.4607 33.3476 79.201 33.0879L77.7868 34.5021ZM77.5989 34.05V44.4H79.5989V34.05H77.5989ZM77.5989 44.4C77.5989 44.8653 77.7626 45.2816 78.0239 45.63L79.6239 44.43C79.6128 44.4152 79.606 44.4042 79.6021 44.397C79.5983 44.39 79.597 44.3864 79.5969 44.3862C79.5968 44.386 79.5975 44.3879 79.5981 44.3913C79.5987 44.3948 79.5989 44.3979 79.5989 44.4H77.5989ZM78.0239 45.63C78.2633 45.9492 78.5667 46.2069 78.9094 46.4125L79.9384 44.6975C79.7812 44.6032 79.6845 44.5108 79.6239 44.43L78.0239 45.63ZM78.9242 46.4212C79.268 46.6196 79.6443 46.7703 80.0458 46.8798L80.572 44.9503C80.3135 44.8798 80.0998 44.7905 79.9236 44.6888L78.9242 46.4212ZM80.053 46.8817C80.4829 46.9955 80.9294 47.05 81.3889 47.05V45.05C81.0884 45.05 80.8149 45.0145 80.5648 44.9483L80.053 46.8817ZM81.3889 47.05H82.2589V45.05H81.3889V47.05ZM82.2589 47.05C82.7181 47.05 83.1624 46.9956 83.587 46.8798L83.0608 44.9503C82.8254 45.0144 82.5597 45.05 82.2589 45.05V47.05ZM83.5798 46.8817C83.9926 46.7724 84.3782 46.6197 84.7234 46.4125L83.6944 44.6975C83.5396 44.7904 83.3352 44.8776 83.068 44.9483L83.5798 46.8817ZM84.7086 46.4212C85.0627 46.217 85.3783 45.9575 85.6239 45.63L84.0239 44.43C83.9695 44.5025 83.8751 44.5931 83.7092 44.6888L84.7086 46.4212ZM85.6239 45.63C85.8852 45.2816 86.0489 44.8653 86.0489 44.4H84.0489C84.0489 44.3979 84.0491 44.3948 84.0497 44.3913C84.0503 44.3879 84.051 44.386 84.0509 44.3862C84.0508 44.3864 84.0495 44.39 84.0457 44.397C84.0418 44.4042 84.035 44.4152 84.0239 44.43L85.6239 45.63ZM86.0489 44.4V34.05H84.0489V44.4H86.0489ZM86.0489 34.05C86.0489 34.1191 86.0363 34.2035 85.9998 34.292C85.9633 34.3807 85.9121 34.451 85.861 34.5021L84.4468 33.0879C84.1871 33.3476 84.0489 33.6878 84.0489 34.05H86.0489ZM85.861 34.5021C85.8099 34.5532 85.7396 34.6044 85.6509 34.6409C85.5624 34.6774 85.478 34.69 85.4089 34.69V32.69C85.0467 32.69 84.7065 32.8282 84.4468 33.0879L85.861 34.5021ZM85.4089 34.69C85.3398 34.69 85.2554 34.6774 85.1669 34.6409C85.0782 34.6044 85.0079 34.5532 84.9568 34.5021L86.371 33.0879C86.1113 32.8282 85.7711 32.69 85.4089 32.69V34.69ZM84.9568 34.5021C84.9057 34.451 84.8545 34.3807 84.818 34.292C84.7815 34.2035 84.7689 34.1191 84.7689 34.05H86.7689C86.7689 33.6878 86.6307 33.3476 86.371 33.0879L84.9568 34.5021ZM84.7689 34.05V44.4H86.7689V34.05H84.7689ZM84.7689 44.4C84.7689 44.537 84.7345 44.6653 84.6493 44.8027L86.3485 45.8574C86.6233 45.4148 86.7689 44.923 86.7689 44.4H84.7689ZM84.6493 44.8027C84.5515 44.9601 84.4042 45.1185 84.1824 45.271L85.3154 46.9191C85.7337 46.6315 86.0863 46.2799 86.3485 45.8574L84.6493 44.8027ZM84.1881 45.2671C83.9828 45.4062 83.7155 45.5304 83.3701 45.6268L83.9077 47.5532C84.4223 47.4096 84.8951 47.2039 85.3098 46.9229L84.1881 45.2671ZM83.3701 45.6268C83.0357 45.7201 82.6668 45.77 82.2589 45.77V47.77C82.831 47.77 83.3821 47.6999 83.9077 47.5532L83.3701 45.6268ZM82.2589 45.77H81.3889V47.77H82.2589V45.77ZM81.3889 45.77C80.981 45.77 80.6121 45.7201 80.2777 45.6268L79.7401 47.5532C80.2657 47.6999 80.8168 47.77 81.3889 47.77V45.77ZM80.2777 45.6268C79.9309 45.53 79.6534 45.4039 79.4326 45.259L78.3352 46.9311C78.7544 47.2061 79.2269 47.41 79.7401 47.5532L80.2777 45.6268ZM79.4627 45.2795C79.2489 45.1278 79.1008 44.9673 78.9985 44.8027L77.2993 45.8574C77.5571 46.2727 77.8989 46.6222 78.3052 46.9105L79.4627 45.2795ZM78.9985 44.8027C78.9133 44.6653 78.8789 44.537 78.8789 44.4H76.8789C76.8789 44.923 77.0245 45.4148 77.2993 45.8574L78.9985 44.8027ZM78.8789 44.4V34.05H76.8789V44.4H78.8789ZM92.5445 43.32L93.2516 44.0271L92.5445 43.32ZM93.0545 43.32L92.3473 44.0271L93.0545 43.32ZM93.9845 45.555L93.47 46.4125L93.4773 46.4169L93.4847 46.4212L93.9845 45.555ZM94.8845 45.915L95.1403 44.9483L94.8845 45.915ZM97.8845 45.915L97.6286 44.9483L97.8845 45.915ZM98.7695 45.555L98.2697 44.6888L98.2623 44.6931L98.255 44.6975L98.7695 45.555ZM99.3845 45.03L100.184 45.63V45.63L99.3845 45.03ZM99.3845 41.595L100.184 40.995L100.184 40.995L99.3845 41.595ZM98.7695 41.07L98.255 41.9275L98.2623 41.9319L98.2697 41.9362L98.7695 41.07ZM97.8845 40.725L97.6286 41.6917L97.6419 41.6953L97.6554 41.6984L97.8845 40.725ZM94.5845 40.41L94.8533 39.4468L94.5845 40.41ZM93.4595 39.915L92.8929 40.7391L92.9018 40.7452L92.9108 40.7511L93.4595 39.915ZM92.7095 39.15L91.8598 39.6774L92.7095 39.15ZM92.7095 35.13L93.5591 35.6574V35.6574L92.7095 35.13ZM93.4595 34.38L94.0081 35.2161V35.2161L93.4595 34.38ZM94.5845 33.885L94.8533 34.8482L94.8636 34.8453L94.8738 34.8422L94.5845 33.885ZM98.1845 33.885L97.8888 34.8403L97.9022 34.8444L97.9157 34.8482L98.1845 33.885ZM99.3095 34.38L98.7608 35.2161L99.3095 34.38ZM100.059 35.13L99.2098 35.6574V35.6574L100.059 35.13ZM100.224 37.14L100.932 37.8471L100.932 37.8471L100.224 37.14ZM99.7145 37.14L99.0073 37.8471L99.0073 37.8471L99.7145 37.14ZM99.3845 35.43L100.184 34.83L99.3845 35.43ZM98.7695 34.905L98.255 35.7625L98.2623 35.7669L98.2697 35.7712L98.7695 34.905ZM97.8845 34.545L97.6286 35.5117L97.8845 34.545ZM94.8845 34.545L94.6286 33.5783L94.8845 34.545ZM93.9845 34.905L93.4847 34.0388L93.4773 34.0431L93.47 34.0475L93.9845 34.905ZM93.3845 38.85L92.5845 39.45V39.45L93.3845 38.85ZM93.9845 39.375L93.47 40.2325L93.4773 40.2369L93.4847 40.2412L93.9845 39.375ZM94.8845 39.735L94.6286 40.7017L94.8845 39.735ZM98.1845 40.065L97.8888 41.0203L97.9022 41.0244L97.9157 41.0282L98.1845 40.065ZM99.3095 40.56L99.8581 39.724L99.8581 39.724L99.3095 40.56ZM100.059 41.31L100.909 40.7827L100.059 41.31ZM100.059 45.33L100.909 45.8574L100.059 45.33ZM99.3095 46.095L99.8581 46.9311L99.8671 46.9252L99.876 46.9191L99.3095 46.095ZM98.1845 46.59L97.9156 45.6268L97.9097 45.6285L98.1845 46.59ZM94.5845 46.59L94.8533 45.6268L94.5845 46.59ZM93.4595 46.095L92.8929 46.9191L92.9018 46.9252L92.9108 46.9311L93.4595 46.095ZM93.4395 44.4V43.575H91.4395V44.4H93.4395ZM93.4395 43.575C93.4395 43.6441 93.4268 43.7285 93.3904 43.817C93.3538 43.9057 93.3027 43.976 93.2516 44.0271L91.8373 42.6129C91.5777 42.8726 91.4395 43.2128 91.4395 43.575H93.4395ZM93.2516 44.0271C93.2005 44.0782 93.1302 44.1294 93.0415 44.1659C92.9529 44.2024 92.8685 44.215 92.7995 44.215V42.215C92.4373 42.215 92.097 42.3532 91.8373 42.6129L93.2516 44.0271ZM92.7995 44.215C92.7304 44.215 92.646 44.2024 92.5575 44.1659C92.4687 44.1294 92.3984 44.0782 92.3473 44.0271L93.7616 42.6129C93.5019 42.3532 93.1616 42.215 92.7995 42.215V44.215ZM92.3473 44.0271C92.2962 43.976 92.2451 43.9057 92.2085 43.817C92.1721 43.7285 92.1595 43.6441 92.1595 43.575H94.1595C94.1595 43.2128 94.0212 42.8726 93.7616 42.6129L92.3473 44.0271ZM92.1595 43.575V44.4H94.1595V43.575H92.1595ZM92.1595 44.4C92.1595 44.8653 92.3231 45.2816 92.5845 45.63L94.1845 44.43C94.1734 44.4152 94.1666 44.4042 94.1627 44.397C94.1588 44.39 94.1575 44.3864 94.1574 44.3862C94.1574 44.386 94.158 44.3879 94.1586 44.3913C94.1592 44.3948 94.1595 44.3979 94.1595 44.4H92.1595ZM92.5845 45.63C92.8238 45.9492 93.1272 46.2069 93.47 46.4125L94.4989 44.6975C94.3417 44.6032 94.2451 44.5108 94.1845 44.43L92.5845 45.63ZM93.4847 46.4212C93.833 46.6221 94.2174 46.7729 94.6286 46.8817L95.1403 44.9483C94.8715 44.8771 94.6559 44.7879 94.4842 44.6888L93.4847 46.4212ZM94.6286 46.8817C95.0585 46.9955 95.505 47.05 95.9645 47.05V45.05C95.6639 45.05 95.3904 45.0145 95.1403 44.9483L94.6286 46.8817ZM95.9645 47.05H96.8045V45.05H95.9645V47.05ZM96.8045 47.05C97.2639 47.05 97.7104 46.9955 98.1403 46.8817L97.6286 44.9483C97.3785 45.0145 97.105 45.05 96.8045 45.05V47.05ZM98.1403 46.8817C98.5532 46.7724 98.9387 46.6197 99.284 46.4125L98.255 44.6975C98.1002 44.7904 97.8957 44.8776 97.6286 44.9483L98.1403 46.8817ZM99.2692 46.4212C99.6232 46.217 99.9388 45.9575 100.184 45.63L98.5845 44.43C98.5301 44.5025 98.4357 44.5931 98.2697 44.6888L99.2692 46.4212ZM100.184 45.63C100.446 45.2816 100.609 44.8653 100.609 44.4H98.6095C98.6095 44.3979 98.6097 44.3948 98.6103 44.3913C98.6109 44.3879 98.6115 44.386 98.6115 44.3862C98.6114 44.3864 98.6101 44.39 98.6062 44.397C98.6023 44.4042 98.5956 44.4152 98.5845 44.43L100.184 45.63ZM100.609 44.4V42.24H98.6095V44.4H100.609ZM100.609 42.24C100.609 41.7745 100.452 41.3522 100.184 40.995L98.5845 42.195C98.6038 42.2208 98.6085 42.2342 98.609 42.2356C98.6094 42.2368 98.6094 42.2369 98.6093 42.2365C98.6092 42.2362 98.6095 42.2371 98.6095 42.24H100.609ZM100.184 40.995C99.9388 40.6675 99.6232 40.4081 99.2692 40.2038L98.2697 41.9362C98.4357 42.032 98.5301 42.1225 98.5845 42.195L100.184 40.995ZM99.2839 40.2125C98.9298 40.0001 98.5348 39.8507 98.1135 39.7516L97.6554 41.6984C97.9141 41.7593 98.1091 41.84 98.255 41.9275L99.2839 40.2125ZM98.1403 39.7583C97.7104 39.6445 97.2639 39.59 96.8045 39.59V41.59C97.105 41.59 97.3785 41.6255 97.6286 41.6917L98.1403 39.7583ZM96.8045 39.59H95.9645V41.59H96.8045V39.59ZM95.9645 39.59C95.5565 39.59 95.1877 39.5401 94.8533 39.4468L94.3157 41.3732C94.8412 41.5199 95.3924 41.59 95.9645 41.59V39.59ZM94.8533 39.4468C94.5064 39.35 94.229 39.2239 94.0081 39.079L92.9108 40.7511C93.3299 41.0261 93.8025 41.23 94.3157 41.3732L94.8533 39.4468ZM94.026 39.091C93.8042 38.9385 93.6568 38.7801 93.5591 38.6227L91.8598 39.6774C92.1221 40.0999 92.4747 40.4515 92.8929 40.7391L94.026 39.091ZM93.5591 38.6227C93.4738 38.4853 93.4395 38.357 93.4395 38.22H91.4395C91.4395 38.743 91.5851 39.2348 91.8598 39.6774L93.5591 38.6227ZM93.4395 38.22V36.06H91.4395V38.22H93.4395ZM93.4395 36.06C93.4395 35.923 93.4738 35.7948 93.5591 35.6574L91.8598 34.6027C91.5851 35.0453 91.4395 35.537 91.4395 36.06H93.4395ZM93.5591 35.6574C93.6536 35.5052 93.7949 35.356 94.0081 35.2161L92.9108 33.544C92.4841 33.824 92.1253 34.1749 91.8598 34.6027L93.5591 35.6574ZM94.0081 35.2161C94.229 35.0711 94.5064 34.945 94.8533 34.8482L94.3157 32.9218C93.8025 33.065 93.3299 33.2689 92.9108 33.544L94.0081 35.2161ZM94.8738 34.8422C95.2019 34.7431 95.5637 34.69 95.9645 34.69V32.69C95.3853 32.69 94.827 32.767 94.2951 32.9278L94.8738 34.8422ZM95.9645 34.69H96.8045V32.69H95.9645V34.69ZM96.8045 34.69C97.2177 34.69 97.5766 34.7437 97.8888 34.8403L98.4801 32.9297C97.9523 32.7663 97.3912 32.69 96.8045 32.69V34.69ZM97.9157 34.8482C98.2625 34.945 98.5399 35.0711 98.7608 35.2161L99.8581 33.544C99.439 33.2689 98.9664 33.065 98.4533 32.9218L97.9157 34.8482ZM98.7608 35.2161C98.974 35.356 99.1153 35.5052 99.2098 35.6574L100.909 34.6027C100.644 34.1749 100.285 33.824 99.8581 33.544L98.7608 35.2161ZM99.2098 35.6574C99.2951 35.7948 99.3295 35.923 99.3295 36.06H101.329C101.329 35.537 101.184 35.0453 100.909 34.6027L99.2098 35.6574ZM99.3295 36.06V36.885H101.329V36.06H99.3295ZM99.3295 36.885C99.3295 36.816 99.3421 36.7315 99.3785 36.643C99.4151 36.5543 99.4662 36.484 99.5173 36.4329L100.932 37.8471C101.191 37.5875 101.329 37.2472 101.329 36.885H99.3295ZM99.5173 36.4329C99.5685 36.3818 99.6387 36.3306 99.7275 36.2941C99.816 36.2576 99.9004 36.245 99.9695 36.245V38.245C100.332 38.245 100.672 38.1068 100.932 37.8471L99.5173 36.4329ZM99.9695 36.245C100.039 36.245 100.123 36.2576 100.211 36.2941C100.3 36.3306 100.37 36.3818 100.422 36.4329L99.0073 37.8471C99.267 38.1068 99.6073 38.245 99.9695 38.245V36.245ZM100.422 36.4329C100.473 36.484 100.524 36.5543 100.56 36.643C100.597 36.7315 100.609 36.816 100.609 36.885H98.6095C98.6095 37.2472 98.7477 37.5875 99.0073 37.8471L100.422 36.4329ZM100.609 36.885V36.06H98.6095V36.885H100.609ZM100.609 36.06C100.609 35.5947 100.446 35.1784 100.184 34.83L98.5845 36.03C98.5956 36.0448 98.6023 36.0559 98.6062 36.063C98.6101 36.07 98.6114 36.0736 98.6115 36.0739C98.6115 36.074 98.6109 36.0721 98.6103 36.0687C98.6097 36.0653 98.6095 36.0622 98.6095 36.06H100.609ZM100.184 34.83C99.9388 34.5025 99.6232 34.2431 99.2692 34.0388L98.2697 35.7712C98.4357 35.867 98.5301 35.9575 98.5845 36.03L100.184 34.83ZM99.284 34.0475C98.9387 33.8404 98.5532 33.6876 98.1403 33.5783L97.6286 35.5117C97.8957 35.5824 98.1002 35.6696 98.255 35.7625L99.284 34.0475ZM98.1403 33.5783C97.7104 33.4645 97.2639 33.41 96.8045 33.41V35.41C97.105 35.41 97.3785 35.4455 97.6286 35.5117L98.1403 33.5783ZM96.8045 33.41H95.9645V35.41H96.8045V33.41ZM95.9645 33.41C95.505 33.41 95.0585 33.4645 94.6286 33.5783L95.1403 35.5117C95.3904 35.4455 95.6639 35.41 95.9645 35.41V33.41ZM94.6286 33.5783C94.2174 33.6871 93.833 33.8379 93.4847 34.0388L94.4842 35.7712C94.6559 35.6721 94.8715 35.5829 95.1403 35.5117L94.6286 33.5783ZM93.47 34.0475C93.1272 34.2532 92.8239 34.5108 92.5845 34.83L94.1845 36.03C94.2451 35.9492 94.3417 35.8569 94.4989 35.7625L93.47 34.0475ZM92.5845 34.83C92.3231 35.1784 92.1595 35.5947 92.1595 36.06H94.1595C94.1595 36.0622 94.1592 36.0653 94.1586 36.0687C94.158 36.0721 94.1574 36.074 94.1574 36.0739C94.1575 36.0736 94.1588 36.07 94.1627 36.063C94.1666 36.0559 94.1734 36.0448 94.1845 36.03L92.5845 34.83ZM92.1595 36.06V38.22H94.1595V36.06H92.1595ZM92.1595 38.22C92.1595 38.6853 92.3231 39.1016 92.5845 39.45L94.1845 38.25C94.1734 38.2352 94.1666 38.2242 94.1627 38.217C94.1588 38.21 94.1575 38.2064 94.1574 38.2062C94.1574 38.206 94.158 38.2079 94.1586 38.2113C94.1592 38.2148 94.1595 38.2179 94.1595 38.22H92.1595ZM92.5845 39.45C92.8239 39.7692 93.1272 40.0269 93.47 40.2325L94.4989 38.5175C94.3417 38.4232 94.2451 38.3308 94.1845 38.25L92.5845 39.45ZM93.4847 40.2412C93.833 40.4421 94.2174 40.5929 94.6286 40.7017L95.1403 38.7683C94.8715 38.6971 94.6559 38.6079 94.4842 38.5088L93.4847 40.2412ZM94.6286 40.7017C95.0585 40.8155 95.505 40.87 95.9645 40.87V38.87C95.6639 38.87 95.3904 38.8345 95.1403 38.7683L94.6286 40.7017ZM95.9645 40.87H96.8045V38.87H95.9645V40.87ZM96.8045 40.87C97.2177 40.87 97.5766 40.9237 97.8888 41.0203L98.4801 39.1097C97.9523 38.9463 97.3912 38.87 96.8045 38.87V40.87ZM97.9157 41.0282C98.2625 41.125 98.5399 41.2511 98.7608 41.3961L99.8581 39.724C99.439 39.4489 98.9664 39.245 98.4533 39.1018L97.9157 41.0282ZM98.7608 41.3961C98.974 41.536 99.1153 41.6852 99.2098 41.8374L100.909 40.7827C100.644 40.3549 100.285 40.004 99.8581 39.724L98.7608 41.3961ZM99.2098 41.8374C99.2951 41.9748 99.3295 42.103 99.3295 42.24H101.329C101.329 41.717 101.184 41.2253 100.909 40.7827L99.2098 41.8374ZM99.3295 42.24V44.4H101.329V42.24H99.3295ZM99.3295 44.4C99.3295 44.537 99.2951 44.6653 99.2098 44.8027L100.909 45.8574C101.184 45.4148 101.329 44.923 101.329 44.4H99.3295ZM99.2098 44.8027C99.1121 44.9601 98.9647 45.1185 98.7429 45.271L99.876 46.9191C100.294 46.6315 100.647 46.2799 100.909 45.8574L99.2098 44.8027ZM98.7608 45.259C98.5399 45.4039 98.2625 45.53 97.9157 45.6268L98.4533 47.5532C98.9664 47.41 99.439 47.2061 99.8581 46.9311L98.7608 45.259ZM97.9097 45.6285C97.5909 45.7196 97.2247 45.77 96.8045 45.77V47.77C97.3842 47.77 97.938 47.7004 98.4592 47.5515L97.9097 45.6285ZM96.8045 45.77H95.9645V47.77H96.8045V45.77ZM95.9645 45.77C95.5565 45.77 95.1877 45.7201 94.8533 45.6268L94.3157 47.5532C94.8412 47.6999 95.3924 47.77 95.9645 47.77V45.77ZM94.8533 45.6268C94.5064 45.53 94.229 45.4039 94.0081 45.259L92.9108 46.9311C93.3299 47.2061 93.8025 47.41 94.3157 47.5532L94.8533 45.6268ZM94.026 45.271C93.8042 45.1185 93.6568 44.9601 93.5591 44.8027L91.8598 45.8574C92.1221 46.2799 92.4747 46.6315 92.8929 46.9191L94.026 45.271ZM93.5591 44.8027C93.4738 44.6653 93.4395 44.537 93.4395 44.4H91.4395C91.4395 44.923 91.5851 45.4148 91.8598 45.8574L93.5591 44.8027ZM114.785 33.795L115.492 33.0879L115.492 33.0879L114.785 33.795ZM114.785 34.305L115.492 35.0121L115.492 35.0121L114.785 34.305ZM109.43 34.545L109.666 35.5169L109.676 35.5144L109.686 35.5117L109.43 34.545ZM108.545 34.89L108.045 34.0238L108.038 34.0281L108.031 34.0325L108.545 34.89ZM107.72 39.87H106.72V40.87H107.72V39.87ZM114.785 39.975L115.492 39.2679V39.2679L114.785 39.975ZM114.785 40.485L115.492 41.1921V41.1921L114.785 40.485ZM107.72 40.59V39.59H106.72V40.59H107.72ZM108.545 45.555L108.031 46.4125L108.038 46.4169L108.045 46.4212L108.545 45.555ZM109.43 45.915L109.167 46.8798L109.174 46.8817L109.43 45.915ZM114.785 46.155L115.492 45.4479V45.4479L114.785 46.155ZM114.785 46.665L115.492 47.3721V47.3721L114.785 46.665ZM108.005 46.095L107.426 46.9105L107.441 46.9211L107.456 46.9311L108.005 46.095ZM107.27 35.13L108.12 35.6574V35.6574L107.27 35.13ZM108.005 34.38L108.566 35.208L108.572 35.2041L108.005 34.38ZM109.13 33.87L109.399 34.8332L109.13 33.87ZM110.51 34.69H114.53V32.69H110.51V34.69ZM114.53 34.69C114.461 34.69 114.377 34.6774 114.288 34.6409C114.199 34.6044 114.129 34.5532 114.078 34.5021L115.492 33.0879C115.232 32.8282 114.892 32.69 114.53 32.69V34.69ZM114.078 34.5021C114.027 34.451 113.976 34.3807 113.939 34.292C113.903 34.2035 113.89 34.1191 113.89 34.05H115.89C115.89 33.6878 115.752 33.3476 115.492 33.0879L114.078 34.5021ZM113.89 34.05C113.89 33.981 113.903 33.8965 113.939 33.808C113.976 33.7193 114.027 33.649 114.078 33.5979L115.492 35.0121C115.752 34.7525 115.89 34.4122 115.89 34.05H113.89ZM114.078 33.5979C114.129 33.5468 114.199 33.4956 114.288 33.4591C114.377 33.4226 114.461 33.41 114.53 33.41V35.41C114.892 35.41 115.232 35.2718 115.492 35.0121L114.078 33.5979ZM114.53 33.41H110.51V35.41H114.53V33.41ZM110.51 33.41C110.051 33.41 109.604 33.4645 109.174 33.5783L109.686 35.5117C109.936 35.4455 110.209 35.41 110.51 35.41V33.41ZM109.194 33.5732C108.784 33.6727 108.398 33.8204 108.045 34.0238L109.045 35.7562C109.212 35.6596 109.416 35.5773 109.666 35.5169L109.194 33.5732ZM108.031 34.0325C107.688 34.2382 107.384 34.4958 107.145 34.815L108.745 36.015C108.806 35.9342 108.902 35.8419 109.059 35.7475L108.031 34.0325ZM107.145 34.815C106.877 35.1722 106.72 35.5945 106.72 36.06H108.72C108.72 36.0571 108.72 36.0562 108.72 36.0565C108.72 36.0569 108.72 36.0568 108.72 36.0556C108.721 36.0542 108.726 36.0408 108.745 36.015L107.145 34.815ZM106.72 36.06V39.87H108.72V36.06H106.72ZM107.72 40.87H114.53V38.87H107.72V40.87ZM114.53 40.87C114.461 40.87 114.377 40.8574 114.288 40.8209C114.199 40.7844 114.129 40.7332 114.078 40.6821L115.492 39.2679C115.232 39.0082 114.892 38.87 114.53 38.87V40.87ZM114.078 40.6821C114.027 40.631 113.976 40.5607 113.939 40.472C113.903 40.3835 113.89 40.2991 113.89 40.23H115.89C115.89 39.8678 115.752 39.5276 115.492 39.2679L114.078 40.6821ZM113.89 40.23C113.89 40.161 113.903 40.0765 113.939 39.988C113.976 39.8993 114.027 39.829 114.078 39.7779L115.492 41.1921C115.752 40.9325 115.89 40.5922 115.89 40.23H113.89ZM114.078 39.7779C114.129 39.7268 114.199 39.6756 114.288 39.6391C114.377 39.6026 114.461 39.59 114.53 39.59V41.59C114.892 41.59 115.232 41.4518 115.492 41.1921L114.078 39.7779ZM114.53 39.59H107.72V41.59H114.53V39.59ZM106.72 40.59V44.4H108.72V40.59H106.72ZM106.72 44.4C106.72 44.8653 106.884 45.2816 107.145 45.63L108.745 44.43C108.734 44.4152 108.727 44.4042 108.723 44.397C108.719 44.39 108.718 44.3864 108.718 44.3862C108.718 44.386 108.719 44.3879 108.719 44.3913C108.72 44.3948 108.72 44.3979 108.72 44.4H106.72ZM107.145 45.63C107.384 45.9492 107.688 46.2069 108.031 46.4125L109.059 44.6975C108.902 44.6032 108.806 44.5108 108.745 44.43L107.145 45.63ZM108.045 46.4212C108.389 46.6196 108.765 46.7703 109.167 46.8798L109.693 44.9503C109.435 44.8798 109.221 44.7905 109.045 44.6888L108.045 46.4212ZM109.174 46.8817C109.604 46.9955 110.051 47.05 110.51 47.05V45.05C110.209 45.05 109.936 45.0145 109.686 44.9483L109.174 46.8817ZM110.51 47.05H114.53V45.05H110.51V47.05ZM114.53 47.05C114.461 47.05 114.377 47.0374 114.288 47.0009C114.199 46.9644 114.129 46.9132 114.078 46.8621L115.492 45.4479C115.232 45.1882 114.892 45.05 114.53 45.05V47.05ZM114.078 46.8621C114.027 46.811 113.976 46.7407 113.939 46.652C113.903 46.5635 113.89 46.4791 113.89 46.41H115.89C115.89 46.0478 115.752 45.7076 115.492 45.4479L114.078 46.8621ZM113.89 46.41C113.89 46.341 113.903 46.2565 113.939 46.168C113.976 46.0793 114.027 46.009 114.078 45.9579L115.492 47.3721C115.752 47.1125 115.89 46.7722 115.89 46.41H113.89ZM114.078 45.9579C114.129 45.9068 114.199 45.8556 114.288 45.8191C114.377 45.7826 114.461 45.77 114.53 45.77V47.77C114.892 47.77 115.232 47.6318 115.492 47.3721L114.078 45.9579ZM114.53 45.77H110.51V47.77H114.53V45.77ZM110.51 45.77C110.102 45.77 109.733 45.7201 109.399 45.6268L108.861 47.5532C109.387 47.6999 109.938 47.77 110.51 47.77V45.77ZM109.399 45.6268C109.052 45.53 108.775 45.4039 108.554 45.259L107.456 46.9311C107.875 47.2061 108.348 47.41 108.861 47.5532L109.399 45.6268ZM108.584 45.2795C108.37 45.1278 108.222 44.9673 108.12 44.8027L106.42 45.8574C106.678 46.2727 107.02 46.6222 107.426 46.9105L108.584 45.2795ZM108.12 44.8027C108.034 44.6653 108 44.537 108 44.4H106C106 44.923 106.146 45.4148 106.42 45.8574L108.12 44.8027ZM108 44.4V36.06H106V44.4H108ZM108 36.06C108 35.923 108.034 35.7948 108.12 35.6574L106.42 34.6027C106.146 35.0453 106 35.537 106 36.06H108ZM108.12 35.6574C108.219 35.4979 108.361 35.3469 108.566 35.2079L107.444 33.5521C107.029 33.8332 106.681 34.1821 106.42 34.6027L108.12 35.6574ZM108.572 35.2041C108.788 35.0551 109.059 34.9279 109.399 34.8332L108.861 32.9068C108.341 33.0521 107.862 33.2649 107.438 33.556L108.572 35.2041ZM109.399 34.8332C109.733 34.7399 110.102 34.69 110.51 34.69V32.69C109.938 32.69 109.387 32.7602 108.861 32.9068L109.399 34.8332ZM121.666 33.795L120.958 33.0879L120.958 33.0879L121.666 33.795ZM122.176 33.795L122.883 33.0879V33.0879L122.176 33.795ZM123.106 45.555L122.591 46.4125L122.598 46.4169L122.606 46.4212L123.106 45.555ZM123.991 45.915L123.727 46.8798L123.735 46.8817L123.991 45.915ZM127.006 45.915L126.75 44.9483L126.742 44.9503L127.006 45.915ZM127.891 45.555L127.391 44.6888L127.383 44.6931L127.376 44.6975L127.891 45.555ZM128.506 45.03L129.306 45.63V45.63L128.506 45.03ZM128.836 33.795L128.128 33.0879V33.0879L128.836 33.795ZM129.346 33.795L130.053 33.0879L130.053 33.0879L129.346 33.795ZM129.181 45.33L130.03 45.8574L129.181 45.33ZM128.431 46.095L128.991 46.923L128.997 46.9191L128.431 46.095ZM127.321 46.59L127.052 45.6268L127.321 46.59ZM122.566 46.095L121.987 46.9105L122.002 46.9211L122.017 46.9311L122.566 46.095ZM122.561 34.05C122.561 34.1191 122.548 34.2035 122.511 34.292C122.475 34.3807 122.424 34.451 122.373 34.5021L120.958 33.0879C120.699 33.3476 120.561 33.6878 120.561 34.05H122.561ZM122.373 34.5021C122.322 34.5532 122.251 34.6044 122.163 34.6409C122.074 34.6774 121.99 34.69 121.921 34.69V32.69C121.558 32.69 121.218 32.8282 120.958 33.0879L122.373 34.5021ZM121.921 34.69C121.851 34.69 121.767 34.6774 121.679 34.6409C121.59 34.6044 121.52 34.5532 121.468 34.5021L122.883 33.0879C122.623 32.8282 122.283 32.69 121.921 32.69V34.69ZM121.468 34.5021C121.417 34.451 121.366 34.3807 121.33 34.292C121.293 34.2035 121.281 34.1191 121.281 34.05H123.281C123.281 33.6878 123.142 33.3476 122.883 33.0879L121.468 34.5021ZM121.281 34.05V44.4H123.281V34.05H121.281ZM121.281 44.4C121.281 44.8653 121.444 45.2816 121.706 45.63L123.306 44.43C123.294 44.4152 123.288 44.4042 123.284 44.397C123.28 44.39 123.279 44.3864 123.279 44.3862C123.278 44.386 123.279 44.3879 123.28 44.3913C123.28 44.3948 123.281 44.3979 123.281 44.4H121.281ZM121.706 45.63C121.945 45.9492 122.248 46.2069 122.591 46.4125L123.62 44.6975C123.463 44.6032 123.366 44.5108 123.306 44.43L121.706 45.63ZM122.606 46.4212C122.95 46.6196 123.326 46.7703 123.727 46.8798L124.254 44.9503C123.995 44.8798 123.781 44.7905 123.605 44.6888L122.606 46.4212ZM123.735 46.8817C124.165 46.9955 124.611 47.05 125.071 47.05V45.05C124.77 45.05 124.497 45.0145 124.246 44.9483L123.735 46.8817ZM125.071 47.05H125.941V45.05H125.071V47.05ZM125.941 47.05C126.4 47.05 126.844 46.9956 127.269 46.8798L126.742 44.9503C126.507 45.0144 126.241 45.05 125.941 45.05V47.05ZM127.261 46.8817C127.674 46.7724 128.06 46.6197 128.405 46.4125L127.376 44.6975C127.221 44.7904 127.017 44.8776 126.75 44.9483L127.261 46.8817ZM128.39 46.4212C128.744 46.217 129.06 45.9575 129.306 45.63L127.706 44.43C127.651 44.5025 127.557 44.5931 127.391 44.6888L128.39 46.4212ZM129.306 45.63C129.567 45.2816 129.731 44.8653 129.731 44.4H127.731C127.731 44.3979 127.731 44.3948 127.731 44.3913C127.732 44.3879 127.733 44.386 127.733 44.3862C127.732 44.3864 127.731 44.39 127.727 44.397C127.723 44.4042 127.717 44.4152 127.706 44.43L129.306 45.63ZM129.731 44.4V34.05H127.731V44.4H129.731ZM129.731 34.05C129.731 34.1191 129.718 34.2035 129.681 34.292C129.645 34.3807 129.594 34.451 129.543 34.5021L128.128 33.0879C127.869 33.3476 127.731 33.6878 127.731 34.05H129.731ZM129.543 34.5021C129.492 34.5532 129.421 34.6044 129.333 34.6409C129.244 34.6774 129.16 34.69 129.091 34.69V32.69C128.728 32.69 128.388 32.8282 128.128 33.0879L129.543 34.5021ZM129.091 34.69C129.021 34.69 128.937 34.6774 128.849 34.6409C128.76 34.6044 128.69 34.5532 128.638 34.5021L130.053 33.0879C129.793 32.8282 129.453 32.69 129.091 32.69V34.69ZM128.638 34.5021C128.587 34.451 128.536 34.3807 128.5 34.292C128.463 34.2035 128.451 34.1191 128.451 34.05H130.451C130.451 33.6878 130.312 33.3476 130.053 33.0879L128.638 34.5021ZM128.451 34.05V44.4H130.451V34.05H128.451ZM128.451 44.4C128.451 44.537 128.416 44.6653 128.331 44.8027L130.03 45.8574C130.305 45.4148 130.451 44.923 130.451 44.4H128.451ZM128.331 44.8027C128.233 44.9601 128.086 45.1185 127.864 45.271L128.997 46.9191C129.415 46.6315 129.768 46.2799 130.03 45.8574L128.331 44.8027ZM127.87 45.2671C127.664 45.4062 127.397 45.5304 127.052 45.6268L127.589 47.5532C128.104 47.4096 128.577 47.2039 128.991 46.9229L127.87 45.2671ZM127.052 45.6268C126.717 45.7201 126.348 45.77 125.941 45.77V47.77C126.513 47.77 127.064 47.6999 127.589 47.5532L127.052 45.6268ZM125.941 45.77H125.071V47.77H125.941V45.77ZM125.071 45.77C124.663 45.77 124.294 45.7201 123.959 45.6268L123.422 47.5532C123.947 47.6999 124.498 47.77 125.071 47.77V45.77ZM123.959 45.6268C123.613 45.53 123.335 45.4039 123.114 45.259L122.017 46.9311C122.436 47.2061 122.909 47.41 123.422 47.5532L123.959 45.6268ZM123.144 45.2795C122.931 45.1278 122.782 44.9673 122.68 44.8027L120.981 45.8574C121.239 46.2727 121.581 46.6222 121.987 46.9105L123.144 45.2795ZM122.68 44.8027C122.595 44.6653 122.561 44.537 122.561 44.4H120.561C120.561 44.923 120.706 45.4148 120.981 45.8574L122.68 44.8027ZM122.561 44.4V34.05H120.561V44.4H122.561ZM136.391 35.13L137.241 35.6574L137.241 35.6574L136.391 35.13ZM137.126 34.38L137.687 35.208L137.693 35.2041L137.126 34.38ZM138.251 33.87L138.52 34.8332L138.251 33.87ZM149.051 33.87L148.782 34.8332L149.051 33.87ZM150.161 34.38L149.582 35.1955L149.597 35.2061L149.612 35.2161L150.161 34.38ZM150.911 35.13L150.061 35.6574V35.6574L150.911 35.13ZM151.076 46.665L150.369 45.9579L151.076 46.665ZM150.566 46.665L151.273 45.9579L150.566 46.665ZM149.621 34.89L149.107 35.7475L149.114 35.7519L149.121 35.7562L149.621 34.89ZM148.736 34.545L148.473 35.5098L148.49 35.5144L148.507 35.5184L148.736 34.545ZM144.011 34.41V33.41H143.011V34.41H144.011ZM143.906 46.665L144.613 47.3721L144.613 47.3721L143.906 46.665ZM143.291 34.41H144.291V33.41H143.291V34.41ZM138.551 34.545L138.787 35.5169L138.797 35.5144L138.807 35.5117L138.551 34.545ZM137.666 34.89L137.166 34.0238L137.159 34.0281L137.152 34.0325L137.666 34.89ZM136.736 46.665L136.029 45.9579L136.736 46.665ZM137.121 46.41V36.06H135.121V46.41H137.121ZM137.121 36.06C137.121 35.923 137.155 35.7948 137.241 35.6574L135.541 34.6027C135.267 35.0453 135.121 35.537 135.121 36.06H137.121ZM137.241 35.6574C137.34 35.4979 137.482 35.3469 137.687 35.2079L136.565 33.5521C136.15 33.8332 135.802 34.1821 135.541 34.6027L137.241 35.6574ZM137.693 35.2041C137.909 35.0551 138.181 34.9279 138.52 34.8332L137.982 32.9068C137.462 33.0521 136.983 33.2649 136.56 33.556L137.693 35.2041ZM138.52 34.8332C138.854 34.7399 139.223 34.69 139.631 34.69V32.69C139.059 32.69 138.508 32.7602 137.982 32.9068L138.52 34.8332ZM139.631 34.69H147.671V32.69H139.631V34.69ZM147.671 34.69C148.079 34.69 148.448 34.7399 148.782 34.8332L149.32 32.9068C148.794 32.7602 148.243 32.69 147.671 32.69V34.69ZM148.782 34.8332C149.12 34.9275 149.381 35.0528 149.582 35.1955L150.74 33.5645C150.321 33.2673 149.842 33.0525 149.32 32.9068L148.782 34.8332ZM149.612 35.2161C149.826 35.356 149.967 35.5052 150.061 35.6574L151.761 34.6027C151.495 34.1749 151.136 33.824 150.71 33.544L149.612 35.2161ZM150.061 35.6574C150.147 35.7948 150.181 35.923 150.181 36.06H152.181C152.181 35.537 152.035 35.0453 151.761 34.6027L150.061 35.6574ZM150.181 36.06V46.41H152.181V36.06H150.181ZM150.181 46.41C150.181 46.341 150.194 46.2565 150.23 46.168C150.267 46.0793 150.318 46.009 150.369 45.9579L151.783 47.3721C152.043 47.1125 152.181 46.7722 152.181 46.41H150.181ZM150.369 45.9579C150.42 45.9068 150.49 45.8556 150.579 45.8191C150.668 45.7826 150.752 45.77 150.821 45.77V47.77C151.183 47.77 151.524 47.6318 151.783 47.3721L150.369 45.9579ZM150.821 45.77C150.89 45.77 150.975 45.7826 151.063 45.8191C151.152 45.8556 151.222 45.9068 151.273 45.9579L149.859 47.3721C150.119 47.6318 150.459 47.77 150.821 47.77V45.77ZM151.273 45.9579C151.324 46.009 151.375 46.0793 151.412 46.168C151.448 46.2565 151.461 46.341 151.461 46.41H149.461C149.461 46.7722 149.599 47.1125 149.859 47.3721L151.273 45.9579ZM151.461 46.41V36.06H149.461V46.41H151.461ZM151.461 36.06C151.461 35.5945 151.304 35.1722 151.036 34.815L149.436 36.015C149.455 36.0408 149.46 36.0542 149.461 36.0556C149.461 36.0568 149.461 36.0569 149.461 36.0565C149.461 36.0562 149.461 36.0571 149.461 36.06H151.461ZM151.036 34.815C150.79 34.4875 150.475 34.2281 150.121 34.0238L149.121 35.7562C149.287 35.852 149.382 35.9425 149.436 36.015L151.036 34.815ZM150.136 34.0325C149.781 33.8201 149.386 33.6707 148.965 33.5716L148.507 35.5184C148.766 35.5793 148.961 35.66 149.107 35.7475L150.136 34.0325ZM148.999 33.5803C148.575 33.4644 148.13 33.41 147.671 33.41V35.41C147.972 35.41 148.238 35.4456 148.473 35.5098L148.999 33.5803ZM147.671 33.41H144.011V35.41H147.671V33.41ZM143.011 34.41V46.41H145.011V34.41H143.011ZM143.011 46.41C143.011 46.341 143.024 46.2565 143.06 46.168C143.097 46.0793 143.148 46.009 143.199 45.9579L144.613 47.3721C144.873 47.1125 145.011 46.7722 145.011 46.41H143.011ZM143.199 45.9579C143.25 45.9068 143.32 45.8556 143.409 45.8191C143.498 45.7826 143.582 45.77 143.651 45.77V47.77C144.013 47.77 144.354 47.6318 144.613 47.3721L143.199 45.9579ZM143.651 45.77C143.72 45.77 143.805 45.7826 143.893 45.8191C143.982 45.8556 144.052 45.9068 144.103 45.9579L142.689 47.3721C142.949 47.6318 143.289 47.77 143.651 47.77V45.77ZM144.103 45.9579C144.154 46.009 144.205 46.0793 144.242 46.168C144.278 46.2565 144.291 46.341 144.291 46.41H142.291C142.291 46.7722 142.429 47.1125 142.689 47.3721L144.103 45.9579ZM144.291 46.41V34.41H142.291V46.41H144.291ZM143.291 33.41H139.631V35.41H143.291V33.41ZM139.631 33.41C139.172 33.41 138.725 33.4645 138.295 33.5783L138.807 35.5117C139.057 35.4455 139.331 35.41 139.631 35.41V33.41ZM138.315 33.5732C137.905 33.6727 137.519 33.8204 137.166 34.0238L138.166 35.7562C138.333 35.6596 138.537 35.5773 138.787 35.5169L138.315 33.5732ZM137.152 34.0325C136.809 34.2382 136.505 34.4958 136.266 34.815L137.866 36.015C137.927 35.9342 138.023 35.8419 138.181 35.7475L137.152 34.0325ZM136.266 34.815C135.998 35.1722 135.841 35.5945 135.841 36.06H137.841C137.841 36.0571 137.841 36.0562 137.841 36.0565C137.841 36.0569 137.841 36.0568 137.842 36.0556C137.842 36.0542 137.847 36.0408 137.866 36.015L136.266 34.815ZM135.841 36.06V46.41H137.841V36.06H135.841ZM135.841 46.41C135.841 46.341 135.854 46.2565 135.89 46.168C135.927 46.0793 135.978 46.009 136.029 45.9579L137.443 47.3721C137.703 47.1125 137.841 46.7722 137.841 46.41H135.841ZM136.029 45.9579C136.08 45.9068 136.15 45.8556 136.239 45.8191C136.328 45.7826 136.412 45.77 136.481 45.77V47.77C136.843 47.77 137.184 47.6318 137.443 47.3721L136.029 45.9579ZM136.481 45.77C136.55 45.77 136.635 45.7826 136.723 45.8191C136.812 45.8556 136.882 45.9068 136.933 45.9579L135.519 47.3721C135.779 47.6318 136.119 47.77 136.481 47.77V45.77ZM136.933 45.9579C136.984 46.009 137.035 46.0793 137.072 46.168C137.108 46.2565 137.121 46.341 137.121 46.41H135.121C135.121 46.7722 135.259 47.1125 135.519 47.3721L136.933 45.9579Z" fill="white"/>
<path d="M21.5 14.262L23.5 12.7866L42.151 19.2075C42.9582 19.4853 43.5 20.2449 43.5 21.0985V40.8194L41.4993 42.2948V22.5739C41.4993 21.7203 40.9575 20.9607 40.1504 20.6829L21.5 14.262Z" fill="white"/>
<path d="M16 18.1966L18 16.7212L36.651 23.142C37.4582 23.4199 38 24.1795 38 25.0331V44.754L35.9993 46.2294V26.5085C35.9993 25.6549 35.4575 24.8953 34.6504 24.6174L16 18.1966Z" fill="white"/>
<path d="M31.5 35.9013V38.3604L24.249 35.4237C23.4939 35.1179 22.9998 34.3846 22.9998 33.5699V24.5899L25 25.5735V32.0606C25 32.8922 25.5146 33.637 26.2923 33.9312L31.5 35.9013Z" fill="white"/>
<path d="M31 42.7865V45.7373L17.2678 40.3345C16.5029 40.0335 16 39.2953 16 38.4733L16 22.6226L18.5 23.6062L18.5 36.5061C18.5 37.3281 19.0029 38.0663 19.7678 38.3672L31 42.7865Z" fill="white"/>
</g>
<defs>
<linearGradient id="paint0_linear_1238_60" x1="4" y1="3.93441" x2="171.419" y2="61.6841" gradientUnits="userSpaceOnUse">
<stop stop-color="#AEA3F9"/>
<stop offset="0.143502" stop-color="#B6B9FA"/>
<stop offset="0.275232" stop-color="#BBD8FB"/>
<stop offset="0.409173" stop-color="#B0E0FC"/>
<stop offset="0.528818" stop-color="#A8F3FD"/>
<stop offset="0.64071" stop-color="#88CFD4"/>
<stop offset="0.733266" stop-color="#80D2C9"/>
<stop offset="0.831423" stop-color="#6EB7AB"/>
<stop offset="0.93008" stop-color="#69B1A4"/>
<stop offset="1" stop-color="#66AB9F"/>
</linearGradient>
<linearGradient id="paint1_linear_1238_60" x1="175" y1="-46.7213" x2="90.7393" y2="61.3561" gradientUnits="userSpaceOnUse">
<stop stop-color="#363735" stop-opacity="0.99"/>
<stop offset="1" stop-color="#66AB9F" stop-opacity="0"/>
</linearGradient>
</defs>
</svg>
