<svg width="100" height="100" viewBox="0 0 100 100" fill="none" xmlns="http://www.w3.org/2000/svg">
<path d="M16.2216 44.8353C15.8805 43.5623 15.8804 42.2221 16.2215 40.9491C16.5626 39.6762 17.2327 38.5155 18.1646 37.5836L37.5832 18.1651C38.515 17.2332 39.6758 16.563 40.9487 16.2219C42.2216 15.8808 43.5619 15.8809 44.8348 16.2221L63.0058 21.0909C63.1949 18.6016 64.0616 16.2114 65.512 14.1793L43.6264 8.31565C42.0555 7.89478 40.4015 7.89478 38.8307 8.31568C37.2598 8.73657 35.8274 9.56352 34.6774 10.7134L10.7134 34.6773C9.56351 35.8274 8.73657 37.2598 8.31568 38.8306C7.89478 40.4015 7.89477 42.0555 8.31565 43.6264L14.4048 66.3513C16.3954 64.8312 18.7653 63.887 21.2559 63.6223L16.2216 44.8353Z" fill="#18CDCA"/>
<path d="M78.5757 35.7487L83.7782 55.1637C84.1195 56.4368 84.119 57.777 83.7782 59.0497C83.4369 60.3228 82.7666 61.4834 81.8347 62.4153L62.4161 81.8343C61.4843 82.7662 60.3237 83.436 59.0505 83.7773C57.7778 84.1182 56.4372 84.1182 55.1645 83.7773L36.3775 78.743C36.1128 81.2338 35.1688 83.6037 33.6484 85.5941L56.3734 91.6833C57.9441 92.1043 59.5982 92.1043 61.1689 91.6833C62.7401 91.2623 64.1723 90.4357 65.3224 89.2855L89.2864 65.3216C90.4365 64.1715 91.2631 62.7393 91.6841 61.1681C92.1052 59.5974 92.1052 57.9433 91.6841 56.3726L85.3653 32.7969C83.4168 34.3872 81.0673 35.4087 78.5757 35.7487Z" fill="#18CDCA"/>
<path d="M14.9498 69.4856C13.4108 71.0244 12.3627 72.9856 11.938 75.12C11.5134 77.2548 11.7313 79.4676 12.5642 81.4785C13.3971 83.4889 14.8076 85.2077 16.6173 86.4171C18.427 87.626 20.5546 88.2717 22.7311 88.2717C24.9076 88.2717 27.0353 87.626 28.8449 86.4171C30.6546 85.2077 32.0651 83.4889 32.898 81.4785C33.7309 79.4676 33.9488 77.2548 33.5242 75.12C33.0996 72.9856 32.0515 71.0244 30.5125 69.4856C28.4471 67.425 25.6487 66.2676 22.7311 66.2676C19.8136 66.2676 17.0151 67.425 14.9498 69.4856Z" fill="#4F80E1"/>
<path d="M68.9145 14.384C67.3757 15.923 66.3272 17.8838 65.9029 20.0185C65.4783 22.1532 65.6961 24.3659 66.529 26.3767C67.362 28.3875 68.7723 30.1062 70.5818 31.3154C72.3918 32.5246 74.5193 33.17 76.6956 33.17C78.8724 33.17 80.9999 32.5246 82.8098 31.3154C84.6193 30.1062 86.0296 28.3875 86.8626 26.3767C87.6956 24.3659 87.9134 22.1532 87.4887 20.0185C87.0645 17.8838 86.016 15.923 84.4772 14.384C82.412 12.3233 79.6133 11.166 76.6956 11.166C73.7784 11.166 70.9796 12.3233 68.9145 14.384Z" fill="#4F80E1"/>
<path d="M56.4608 79.1694C56.0188 79.1694 55.579 79.1116 55.1521 78.9972L37.9549 74.389C37.3815 71.3268 35.8959 68.5094 33.693 66.3066C31.4901 64.1039 28.6728 62.618 25.6107 62.0447L21.0029 44.8489C20.7744 43.9912 20.7751 43.0885 21.0048 42.2312C21.2346 41.3738 21.6853 40.5918 22.312 39.9632L39.9631 22.3117C40.5909 21.6838 41.373 21.2322 42.2307 21.0024C43.0885 20.7726 43.9916 20.7726 44.8493 21.0025L61.5643 25.4814C62.2273 28.5245 63.7939 31.2965 66.0591 33.4342C68.3243 35.5719 71.1823 36.9756 74.2585 37.4615L78.9975 55.1517C79.2258 56.0098 79.2254 56.9124 78.9953 57.7696C78.7656 58.6272 78.3149 59.4091 77.6879 60.0379L60.0369 77.6889C59.5685 78.1597 59.0107 78.5333 58.3969 78.7871C57.7831 79.0414 57.1251 79.1713 56.4608 79.1694Z" fill="#4F80E1"/>
</svg>
