<svg width="132" height="67" viewBox="0 0 132 67" fill="none" xmlns="http://www.w3.org/2000/svg">
<g clip-path="url(#clip0_1231_179)">
<path d="M31.8203 7.14141C31.8203 7.14141 26.6107 8.76608 17.6107 15.0577C7.93946 21.8224 1.18726 30.4331 0 31.9989V37.1978C0.674863 35.8374 3.33147 30.9687 10.3693 22.915C19.3889 12.5814 31.8203 7.14141 31.8203 7.14141ZM13.3473 15.67C21.0672 9.7141 31.0651 5.38641 31.0651 5.38641C31.0651 5.38641 22.3526 8.43936 14.3007 13.4366C11.0478 15.4522 6.63258 18.2766 0 24.4897V27.5873C4.17323 23.3163 8.63265 19.3346 13.3473 15.67ZM44.0018 11.1352C44.0018 11.1352 34.1824 17.8339 34.3912 35.3607C34.4876 43.6144 36.5694 50.3862 36.9157 51.4538H43.4483C41.4668 47.5967 39.9677 43.5102 38.9849 39.2867C34.5341 19.5085 44.0018 11.1352 44.0018 11.1352ZM10.7746 12.8938C19.2336 7.67701 28.5656 4.50444 28.5656 4.50444C28.5656 4.50444 23.963 5.24715 16.8234 8.16263C5.45068 12.8099 0.680219 16.9216 0 17.5393V21.2457C0.503469 20.6422 3.33861 17.4768 10.7746 12.8938ZM29.1137 10.2676C26.8999 11.4263 21.2457 14.8506 13.8883 22.9096C6.94681 30.5295 1.10156 40.4347 0 42.3432V46.653C1.08014 44.2928 6.74506 32.2899 14.1578 23.722C21.9384 14.7292 27.0606 11.3745 29.1137 10.2676ZM44.4928 0H0V13.3687C1.42828 12.4278 8.65896 7.88769 19.3461 4.86687C26.6803 2.79408 36.9693 0.853398 44.4928 0ZM38.1815 11.4745C38.1815 11.4745 27.7604 18.9854 24.038 34.8144C21.9616 43.6501 23.1239 50.3862 23.3238 51.4485H27.3837C27.182 50.9129 26.0429 47.6314 25.859 41.0399C25.352 22.9132 38.1815 11.4745 38.1815 11.4745ZM39.7384 12.3529C39.7384 12.3529 28.8477 21.2189 28.1657 38.4743C27.8801 45.7657 29.5279 50.7826 29.7618 51.4538H34.4037C34.1252 50.7754 32.9755 47.7314 32.1667 42.129C29.3173 22.3008 39.7384 12.3529 39.7384 12.3529ZM34.2573 9.57841C34.2573 9.57841 28.2782 12.0654 18.8283 22.1651C8.56969 33.129 1.53362 49.7381 0.821262 51.4538H5.87559C6.23266 49.556 9.21063 35.316 18.4891 23.9933C27.0838 13.5044 34.2573 9.57841 34.2573 9.57841ZM40.956 32.9933C42.6324 43.975 46.0514 50.4308 46.6245 51.4538H51.5324V7.37707C50.6915 7.96089 38.4725 16.7216 40.956 32.9933ZM34.3252 12.4975C34.3252 12.4975 28.5049 16.9608 22.7525 27.7229C17.0001 38.4851 16.7412 50.0398 16.7305 51.4681H20.4369C20.328 50.3666 19.7228 43.2377 21.3296 36.3908C25.0538 20.5423 34.3252 12.4975 34.3252 12.4975ZM32.2256 12.6332C32.2256 12.6332 26.8124 15.4754 18.2856 28.4674C12.3546 37.5067 9.40166 49.7131 9.00175 51.4628H13.7472C13.7079 50.3737 13.5901 43.3751 16.3913 35.7767C22.2794 19.7978 32.2256 12.6242 32.2256 12.6242V12.6332Z" fill="white"/>
<path d="M82.3759 0C81.6896 0.000944656 81.0317 0.273992 80.5464 0.759274C80.0611 1.24456 79.7881 1.90247 79.7871 2.58876V49.0615C79.7876 49.7204 80.0496 50.3523 80.5155 50.8183C80.9815 51.2842 81.6133 51.5462 82.2723 51.5467C83.6792 51.5467 84.9129 50.3844 84.9129 49.0615V27.9675H92.3203C92.9902 27.9427 93.6244 27.659 94.0896 27.1763C94.5548 26.6935 94.8147 26.0492 94.8147 25.3788C94.8147 24.7084 94.5548 24.0641 94.0896 23.5813C93.6244 23.0985 92.9902 22.8149 92.3203 22.79H84.9129V5.17752H92.3203C92.9902 5.15264 93.6244 4.869 94.0896 4.38623C94.5548 3.90347 94.8147 3.25917 94.8147 2.58876C94.8147 1.91835 94.5548 1.27405 94.0896 0.791287C93.6244 0.308521 92.9902 0.0248854 92.3203 0L82.3759 0ZM81.0297 49.0615V2.58876C81.0321 2.23312 81.1749 1.89283 81.427 1.64202C81.6792 1.39121 82.0202 1.25021 82.3759 1.24975H92.3203C92.669 1.26245 92.9993 1.40993 93.2416 1.66116C93.4838 1.91239 93.6192 2.24779 93.6192 2.59679C93.6192 2.9458 93.4838 3.2812 93.2416 3.53243C92.9993 3.78366 92.669 3.93114 92.3203 3.94384H83.6702V24.0308H92.3203C92.6773 24.0308 93.0197 24.1727 93.2722 24.4251C93.5246 24.6776 93.6664 25.02 93.6664 25.377C93.6664 25.734 93.5246 26.0764 93.2722 26.3289C93.0197 26.5813 92.6773 26.7231 92.3203 26.7231H83.6702V49.0615C83.6702 49.7113 83.0043 50.3112 82.2723 50.3112C81.9421 50.3093 81.6261 50.1768 81.3932 49.9427C81.1604 49.7085 81.0297 49.3917 81.0297 49.0615Z" fill="white"/>
<path d="M99.8816 -0.000167673C99.1951 0.000775748 98.537 0.273766 98.0514 0.758997C97.5659 1.24423 97.2924 1.90214 97.291 2.58859V48.8524C97.292 49.5392 97.5652 50.1976 98.0508 50.6832C98.5364 51.1688 99.1948 51.442 99.8816 51.443H109.824C110.511 51.442 111.169 51.1688 111.655 50.6832C112.141 50.1976 112.414 49.5392 112.415 48.8524C112.415 48.5147 112.347 48.1804 112.217 47.869C112.086 47.5577 111.894 47.2756 111.653 47.0393C111.412 46.803 111.126 46.6173 110.811 46.493C110.497 46.3687 110.162 46.3083 109.824 46.3154H102.479V27.9674H109.833C110.52 27.9664 111.178 27.6932 111.664 27.2076C112.149 26.722 112.423 26.0636 112.424 25.3768C112.424 23.9164 111.238 22.6845 109.833 22.6845H102.479V5.17735H109.833C110.181 5.19028 110.528 5.13289 110.854 5.00862C111.179 4.88435 111.476 4.69574 111.727 4.45407C111.978 4.21241 112.177 3.92265 112.313 3.60212C112.45 3.2816 112.52 2.93688 112.52 2.58859C112.52 2.2403 112.45 1.89559 112.313 1.57506C112.177 1.25453 111.978 0.964776 111.727 0.723112C111.476 0.481448 111.179 0.29284 110.854 0.168566C110.528 0.0442923 110.181 -0.0130962 109.833 -0.000167673H99.8816ZM98.5354 48.8524V2.58859C98.5378 2.23295 98.6806 1.89266 98.9327 1.64185C99.1849 1.39104 99.5259 1.25004 99.8816 1.24958H109.824C110.005 1.24299 110.186 1.27295 110.355 1.33768C110.524 1.4024 110.678 1.50057 110.809 1.6263C110.939 1.75204 111.043 1.90277 111.114 2.06948C111.185 2.2362 111.221 2.41548 111.221 2.59663C111.221 2.77777 111.185 2.95705 111.114 3.12377C111.043 3.29049 110.939 3.44122 110.809 3.56695C110.678 3.69269 110.524 3.79085 110.355 3.85558C110.186 3.9203 110.005 3.95027 109.824 3.94368H101.23V23.9236H109.826C110.54 23.9236 111.174 24.6002 111.174 25.3733C111.173 25.7304 111.031 26.0728 110.778 26.3252C110.526 26.5776 110.183 26.7194 109.826 26.7194H101.23V47.5545H109.826C110 47.5492 110.173 47.5788 110.336 47.6413C110.498 47.7038 110.646 47.7981 110.772 47.9186C110.897 48.0392 110.997 48.1835 111.067 48.3432C111.136 48.503 111.172 48.6748 111.174 48.8489C111.173 49.2062 111.031 49.5488 110.779 49.8015C110.526 50.0542 110.183 50.1963 109.826 50.1968H99.8816C99.525 50.1963 99.1831 50.0546 98.9308 49.8026C98.6785 49.5507 98.5363 49.209 98.5354 48.8524Z" fill="white"/>
<path d="M116.762 0C116.076 0.000943421 115.418 0.273933 114.932 0.759165C114.447 1.2444 114.173 1.9023 114.172 2.58876V48.8526C114.173 49.5394 114.446 50.1977 114.932 50.6833C115.417 51.169 116.076 51.4422 116.762 51.4431H129.403C129.74 51.4422 130.074 51.3742 130.385 51.243C130.695 51.1118 130.977 50.9201 131.213 50.679C131.449 50.4379 131.635 50.1522 131.759 49.8387C131.884 49.5251 131.944 49.1899 131.938 48.8526V35.316C131.927 34.6533 131.655 34.0217 131.182 33.5573C130.709 33.093 130.073 32.8334 129.41 32.8344C128.751 32.8354 128.119 33.0977 127.653 33.564C127.187 34.0302 126.925 34.6623 126.925 35.3214V46.1603H119.355V4.86866H126.918V13.2598C126.918 13.9189 127.179 14.5511 127.645 15.0171C128.111 15.4832 128.744 15.745 129.403 15.745C130.062 15.745 130.694 15.4832 131.16 15.0171C131.626 14.5511 131.888 13.9189 131.888 13.2598V2.48521C131.887 1.82638 131.625 1.19481 131.159 0.728944C130.693 0.263082 130.062 0.000944559 129.403 0L116.762 0ZM115.414 48.8526V2.58876C115.417 2.23296 115.561 1.89267 115.813 1.64191C116.065 1.39115 116.407 1.25021 116.762 1.24975H129.403C129.734 1.24975 130.052 1.38142 130.286 1.61579C130.521 1.85016 130.652 2.16804 130.652 2.49949V13.258C130.622 13.5663 130.477 13.8521 130.247 14.06C130.018 14.2679 129.719 14.383 129.409 14.383C129.099 14.383 128.8 14.2679 128.571 14.06C128.341 13.8521 128.196 13.5663 128.165 13.258V3.62605H118.112V47.4029H128.158V35.3214C128.158 34.99 128.29 34.6721 128.524 34.4377C128.759 34.2033 129.077 34.0717 129.408 34.0717C129.743 34.0702 130.066 34.2002 130.306 34.4339C130.546 34.6676 130.686 34.9863 130.694 35.3214V48.8597C130.699 49.0327 130.67 49.2051 130.608 49.3667C130.547 49.5283 130.453 49.676 130.333 49.8009C130.213 49.9258 130.07 50.0255 129.911 50.0942C129.752 50.1628 129.581 50.199 129.408 50.2005H116.762C116.406 50.1991 116.064 50.0565 115.812 49.8039C115.56 49.5514 115.419 49.2093 115.418 48.8526H115.414Z" fill="white"/>
<path d="M72.2902 1.45506L72.2581 1.51398C72.2581 1.51398 66.8931 20.6976 65.9058 24.2326C64.8917 20.6976 59.325 1.30509 59.325 1.30509L59.2732 1.22118C58.7037 0.399919 57.9949 0 57.1022 0C56.4431 0.000472161 55.8111 0.262401 55.3448 0.728315C54.8786 1.19423 54.6162 1.82607 54.6152 2.48521V49.0615C54.6326 49.7093 54.9021 50.3247 55.3665 50.7768C55.8308 51.2289 56.4533 51.4818 57.1013 51.4818C57.7494 51.4818 58.3718 51.2289 58.8362 50.7768C59.3005 50.3247 59.5701 49.7093 59.5874 49.0615V23.1221L65.9951 43.5733C65.9951 43.5733 70.4674 28.7227 72.0653 23.2881C72.1081 29.5119 72.0653 49.065 72.0653 49.065C72.0793 49.7303 72.3539 50.3634 72.8301 50.8282C73.3062 51.293 73.9458 51.5523 74.6112 51.5503C75.27 51.5493 75.9016 51.2872 76.3674 50.8213C76.8333 50.3554 77.0954 49.7239 77.0964 49.065V2.48521C77.0954 1.82576 76.8328 1.19365 76.3662 0.727684C75.8995 0.261719 75.2671 -6.7871e-07 74.6076 0C73.581 0 72.8008 0.489186 72.2902 1.45506ZM74.6112 1.2426C74.9426 1.2426 75.2605 1.37427 75.4949 1.60865C75.7293 1.84302 75.8609 2.1609 75.8609 2.49235V49.0615C75.8609 49.3929 75.7293 49.7108 75.4949 49.9452C75.2605 50.1796 74.9426 50.3112 74.6112 50.3112C73.9256 50.3112 73.2829 49.7542 73.2829 49.0615V14.4024C73.2829 14.4024 66.9181 36.0177 65.9629 39.2902C64.9346 36.0338 58.3805 14.6399 58.3805 14.6399V49.0615C58.3744 49.3957 58.2372 49.714 57.9983 49.9479C57.7595 50.1817 57.4383 50.3122 57.104 50.3112C56.7726 50.3112 56.4547 50.1796 56.2203 49.9452C55.9859 49.7108 55.8543 49.3929 55.8543 49.0615V2.48521C55.8543 2.15376 55.9859 1.83588 56.2203 1.60151C56.4547 1.36713 56.7726 1.23546 57.104 1.23546C57.4379 1.23546 57.8003 1.3158 58.1913 1.84784L65.9237 28.7852C65.9237 28.7852 73.3775 2.14242 73.4168 1.99245C73.781 1.33723 74.222 1.24975 74.6076 1.24975L74.6112 1.2426Z" fill="white"/>
<path d="M0.00976562 54.6837C0.736374 54.5557 1.47336 54.4959 2.2111 54.5052C3.3448 54.5052 4.17499 54.7676 4.7106 55.2425C4.96955 55.4766 5.17443 55.7643 5.31101 56.0856C5.4476 56.4068 5.5126 56.754 5.50151 57.1029C5.50151 57.9063 5.26406 58.5401 4.80344 59.0007C4.19642 59.647 3.20733 59.9755 2.08792 59.9755C1.77772 59.9854 1.46742 59.9596 1.1631 59.8987V63.4516H0.00976562V54.6837ZM1.15596 58.9561C1.4676 59.0256 1.78657 59.0568 2.10577 59.0489C3.5037 59.0489 4.33389 58.3616 4.33389 57.1618C4.33389 55.962 3.5037 55.4086 2.23789 55.4086C1.87513 55.4056 1.5129 55.4367 1.15596 55.5014V58.9561ZM12.127 61.7127C12.127 62.3715 12.1412 62.9517 12.1805 63.4516H11.1521L11.0861 62.4107H11.0593C10.8458 62.7792 10.5375 63.0837 10.1663 63.2926C9.79515 63.5014 9.37479 63.6069 8.94902 63.598C7.94744 63.598 6.74769 63.0303 6.74769 60.8021V57.0707H7.90816V60.5915C7.90816 61.8037 8.29023 62.6357 9.33645 62.6357C9.66896 62.6299 9.99214 62.5248 10.2645 62.3339C10.5368 62.143 10.7458 61.8751 10.8647 61.5645C10.9375 61.3755 10.9733 61.1743 10.97 60.9717V57.0707H12.1305L12.127 61.7127ZM14.0533 54.0963H15.2138V58.092H15.2388C15.6477 57.3778 16.3868 56.9297 17.4152 56.9297C18.997 56.9297 20.1057 58.2491 20.1057 60.1737C20.1057 62.4679 18.6542 63.6034 17.2313 63.6034C16.3082 63.6034 15.5816 63.2463 15.0889 62.4036H15.0621L14.9978 63.4516H13.9998C14.0391 63.016 14.0533 62.3804 14.0533 61.8037V54.0963ZM15.2138 60.9003C15.2133 61.0416 15.2259 61.1827 15.2513 61.3217C15.3502 61.7092 15.575 62.0529 15.8904 62.2988C16.2058 62.5447 16.5939 62.6789 16.9938 62.6803C18.2204 62.6803 18.9309 61.6912 18.9309 60.2273C18.9309 58.9347 18.2721 57.8402 17.0331 57.8402C16.5428 57.8658 16.081 58.0783 15.7426 58.4339C15.4042 58.7896 15.215 59.2614 15.2138 59.7523V60.9003ZM21.5554 54.0963H22.7159V63.4516H21.5554V54.0963ZM25.1939 55.9013C24.9965 55.8978 24.8085 55.8159 24.6714 55.6738C24.5343 55.5317 24.4593 55.3409 24.4628 55.1435C24.4664 54.946 24.5482 54.758 24.6904 54.6209C24.8325 54.4838 25.0233 54.4088 25.2207 54.4123C25.3186 54.4089 25.4161 54.4255 25.5072 54.4613C25.5984 54.4971 25.6812 54.5513 25.7505 54.6205C25.8198 54.6896 25.8741 54.7723 25.9102 54.8633C25.9462 54.9544 25.9631 55.0518 25.9599 55.1497C25.9631 55.2493 25.9459 55.3485 25.9092 55.4411C25.8726 55.5338 25.8173 55.6179 25.7469 55.6884C25.6764 55.7588 25.5923 55.8141 25.4996 55.8507C25.407 55.8873 25.3078 55.9046 25.2082 55.9013H25.1939ZM24.6387 63.4516V57.0707H25.7992V63.4516H24.6387ZM32.2729 63.2284C31.695 63.479 31.0709 63.605 30.4411 63.598C28.5147 63.598 27.2632 62.2911 27.2632 60.3272C27.2632 58.3633 28.6075 56.9243 30.691 56.9243C31.2456 56.916 31.795 57.0332 32.2979 57.2671L32.0336 58.1509C31.6171 57.9411 31.1555 57.8369 30.6893 57.8474C29.2253 57.8474 28.4344 58.9436 28.4344 60.2737C28.4344 61.7519 29.3842 62.6625 30.65 62.6625C31.1429 62.6685 31.6309 62.5642 32.0783 62.3572L32.2729 63.2284ZM42.6636 63.1749C42.2548 63.3873 41.3978 63.598 40.3159 63.598C37.8164 63.598 35.9382 62.0144 35.9382 59.0882C35.9382 56.2923 37.8253 54.4195 40.5801 54.4195C41.6745 54.4195 42.3869 54.6569 42.6904 54.8158L42.3994 55.7514C41.8399 55.4947 41.2294 55.3684 40.614 55.3818C38.5305 55.3818 37.1469 56.7155 37.1469 59.0489C37.1469 61.2378 38.3966 62.6196 40.548 62.6196C41.196 62.6305 41.839 62.5046 42.4351 62.2501L42.6636 63.1749ZM46.5003 63.598C44.7864 63.598 43.442 62.3322 43.442 60.3147C43.442 58.1723 44.8525 56.9226 46.6057 56.9226C48.4392 56.9226 49.6783 58.2544 49.6783 60.1933C49.6783 62.5679 48.0304 63.5962 46.5146 63.5962L46.5003 63.598ZM46.5396 62.7268C47.6483 62.7268 48.4785 61.6859 48.4785 60.2273C48.4785 59.1471 47.9429 57.7885 46.5664 57.7885C45.1899 57.7885 44.615 59.0543 44.615 60.2665C44.615 61.6645 45.4059 62.7196 46.5271 62.7196L46.5396 62.7268ZM51.1423 58.799C51.1423 58.1277 51.1155 57.5992 51.0905 57.0725H52.1046L52.1581 58.1009H52.1974C52.39 57.7359 52.6812 57.4323 53.0379 57.2246C53.3945 57.0169 53.8023 56.9135 54.2148 56.9261C54.609 56.9256 54.9934 57.0489 55.3137 57.2786C55.634 57.5083 55.8742 57.8328 56.0002 58.2062H56.027C56.2048 57.8792 56.4522 57.5952 56.7518 57.3743C57.1505 57.0649 57.6456 56.9062 58.1498 56.9261C59.0067 56.9261 60.26 57.4814 60.26 59.697V63.4462H59.1264V59.8398C59.1264 58.599 58.6639 57.8759 57.7409 57.8759C57.0678 57.8759 56.5679 58.3633 56.3573 58.9186C56.2984 59.1059 56.2671 59.3007 56.2644 59.497V63.4516H55.1307V59.6309C55.1307 58.6026 54.6826 57.8777 53.7989 57.8777C53.0847 57.8777 52.5491 58.458 52.3617 59.0382C52.2968 59.2203 52.2654 59.4127 52.2688 59.6059V63.4516H51.1351L51.1423 58.799ZM62.14 59.156C62.14 58.3383 62.1257 57.6796 62.0865 57.0725H63.1291L63.1934 58.167H63.2202C63.6826 57.3743 64.4467 56.9172 65.4751 56.9172C67.0319 56.9172 68.1924 58.2241 68.1924 60.1612C68.1924 62.4554 66.7802 63.5909 65.2912 63.5909C64.4342 63.5909 63.7076 63.2213 63.3273 62.5875H63.3023V66.0582H62.1418L62.14 59.156ZM63.3005 60.8575C63.2977 61.0173 63.3151 61.1769 63.3523 61.3324C63.4478 61.7189 63.6698 62.0623 63.9829 62.3082C64.2961 62.554 64.6824 62.6882 65.0805 62.6893C66.307 62.6893 67.0194 61.6877 67.0194 60.2237C67.0194 58.9454 66.3588 57.8492 65.1323 57.8492C64.7212 57.8576 64.3247 58.0026 64.005 58.2611C63.6853 58.5197 63.4607 58.8772 63.3666 59.2774C63.3324 59.4338 63.3103 59.5926 63.3005 59.7523V60.8575ZM74.1394 61.9287C74.1332 62.4396 74.1636 62.9504 74.2304 63.457H73.2003L73.0932 62.6536H73.0539C72.8287 62.9569 72.5339 63.2015 72.1942 63.3669C71.8546 63.5322 71.4801 63.6133 71.1025 63.6034C69.8117 63.6034 69.1511 62.6928 69.1511 61.7698C69.1511 60.2273 70.5223 59.3828 72.9896 59.3953V59.2649C72.9896 58.7293 72.8432 57.7742 71.5381 57.7885C70.9461 57.7825 70.3648 57.9467 69.8635 58.2616L69.5903 57.4885C70.2313 57.1177 70.9601 56.926 71.7006 56.9333C73.6645 56.9333 74.1412 58.2651 74.1412 59.5452L74.1394 61.9287ZM73.0039 60.2005C71.7381 60.1737 70.3009 60.3986 70.3009 61.6288C70.3009 62.3947 70.8026 62.7375 71.3828 62.7375C71.7243 62.749 72.0606 62.6513 72.3428 62.4587C72.625 62.266 72.8384 61.9885 72.9521 61.6662C72.9885 61.5471 73.006 61.423 73.0039 61.2985V60.2005ZM75.9979 58.8025C75.9979 58.1312 75.9854 57.6028 75.9444 57.0761H76.9727L77.0388 58.117H77.0656C77.2777 57.7473 77.5858 57.4419 77.9573 57.2329C78.3288 57.0239 78.7498 56.9191 79.1759 56.9297C80.0596 56.9297 81.4308 57.4653 81.4308 59.647V63.4516H80.2703V59.7738C80.2703 58.7454 79.8882 57.8742 78.7938 57.8742C78.4425 57.8837 78.1032 58.0035 77.8238 58.2166C77.5444 58.4297 77.3391 58.7252 77.237 59.0614C77.1824 59.2346 77.1559 59.4154 77.1584 59.597V63.4516H75.9979V58.8025ZM83.566 57.0761L84.9515 60.8468C85.1086 61.2681 85.2675 61.7698 85.3728 62.1519H85.3996C85.5174 61.7698 85.6495 61.2824 85.8084 60.82L87.0743 57.0707H88.3008L86.5601 61.6198C85.7299 63.8087 85.1621 64.9299 84.3694 65.628C83.9623 65.989 83.4713 66.2424 82.9412 66.3653L82.6627 65.3905C83.0385 65.2786 83.3848 65.0847 83.6767 64.8228C84.0944 64.4707 84.4281 64.0296 84.6533 63.5319C84.702 63.446 84.7335 63.3514 84.7462 63.2534C84.7363 63.1515 84.7046 63.0528 84.6533 62.9642L82.3056 57.0725L83.566 57.0761ZM92.1768 54.5766H93.3373V62.4875H97.1347V63.4498H92.1786L92.1768 54.5766ZM98.9272 55.9085C98.7298 55.9049 98.5418 55.8231 98.4047 55.681C98.2676 55.5388 98.1926 55.348 98.1961 55.1506C98.1997 54.9531 98.2815 54.7652 98.4236 54.6281C98.5658 54.491 98.7565 54.4159 98.954 54.4195C99.0518 54.416 99.1494 54.4327 99.2405 54.4685C99.3316 54.5043 99.4144 54.5584 99.4837 54.6276C99.5531 54.6967 99.6074 54.7794 99.6434 54.8705C99.6795 54.9615 99.6964 55.059 99.6931 55.1568C99.6964 55.2566 99.6791 55.3559 99.6423 55.4487C99.6056 55.5415 99.5502 55.6257 99.4795 55.6962C99.4089 55.7667 99.3245 55.8219 99.2317 55.8584C99.1388 55.8949 99.0394 55.912 98.9397 55.9085H98.9272ZM98.3737 63.4516V57.0707H99.5342V63.4516H98.3737ZM101.459 58.7972C101.459 58.1259 101.434 57.5974 101.407 57.0707H102.421L102.475 58.0991H102.514C102.707 57.7344 102.998 57.431 103.355 57.2234C103.711 57.0157 104.119 56.9121 104.531 56.9243C104.926 56.9241 105.31 57.0475 105.63 57.2772C105.95 57.5068 106.191 57.8311 106.317 58.2044H106.342C106.52 57.8769 106.768 57.5928 107.068 57.3725C107.467 57.0631 107.962 56.9044 108.466 56.9243C109.322 56.9243 110.575 57.4796 110.575 59.6952V63.4445H109.441V59.8398C109.441 58.599 108.981 57.8759 108.056 57.8759C107.384 57.8759 106.883 58.3633 106.672 58.9186C106.613 59.1059 106.582 59.3007 106.579 59.497V63.4516H105.446V59.6309C105.446 58.6026 104.997 57.8777 104.114 57.8777C103.4 57.8777 102.864 58.458 102.676 59.0382C102.612 59.2203 102.58 59.4127 102.584 59.6059V63.4516H101.45L101.459 58.7972ZM113.014 55.896C112.816 55.8924 112.628 55.8106 112.491 55.6685C112.354 55.5263 112.279 55.3355 112.283 55.1381C112.286 54.9406 112.368 54.7527 112.51 54.6156C112.652 54.4785 112.843 54.4034 113.04 54.407C113.138 54.4038 113.235 54.4206 113.326 54.4565C113.417 54.4925 113.5 54.5466 113.569 54.6158C113.638 54.6849 113.692 54.7675 113.728 54.8584C113.764 54.9493 113.781 55.0466 113.778 55.1443C113.781 55.244 113.764 55.3433 113.728 55.4361C113.691 55.5288 113.636 55.6131 113.565 55.6836C113.495 55.7541 113.411 55.8093 113.318 55.8459C113.225 55.8824 113.126 55.8995 113.026 55.896H113.014ZM112.46 63.4516V57.0707H113.621V63.4516H112.46ZM116.941 55.5407V57.0707H118.604V57.9545H116.941V61.3949C116.941 62.1876 117.166 62.6357 117.811 62.6357C118.038 62.6448 118.265 62.6177 118.484 62.5554L118.538 63.4391C118.206 63.5491 117.858 63.6028 117.509 63.598C117.278 63.6085 117.048 63.5705 116.833 63.4866C116.617 63.4026 116.422 63.2746 116.259 63.1106C115.943 62.7535 115.811 62.1876 115.811 61.4342V57.9545H114.822V57.0707H115.811V55.896L116.941 55.5407ZM120.489 60.4576C120.514 62.0287 121.503 62.675 122.663 62.675C123.268 62.6917 123.87 62.5835 124.431 62.3572L124.642 63.1749C123.965 63.4617 123.234 63.6011 122.499 63.5837C120.55 63.5837 119.362 62.2786 119.362 60.3701C119.362 58.4615 120.509 56.9154 122.369 56.9154C124.452 56.9154 124.993 58.749 124.993 59.922C124.997 60.1073 124.983 60.2927 124.952 60.4754L120.489 60.4576ZM123.881 59.6274C123.894 58.9025 123.578 57.742 122.285 57.742C121.098 57.742 120.598 58.824 120.5 59.6274H123.881ZM131.951 54.0928V61.8055C131.951 62.3732 131.963 63.0178 132.004 63.4534H130.962L130.908 62.3465H130.883C130.526 63.0606 129.762 63.5962 128.721 63.5962C127.177 63.5962 125.977 62.2893 125.977 60.3522C125.963 58.2098 127.296 56.9226 128.834 56.9226C129.821 56.9226 130.482 57.385 130.758 57.8867H130.785V54.0963L131.951 54.0928ZM130.79 59.6702C130.792 59.5015 130.774 59.3331 130.737 59.1685C130.651 58.789 130.438 58.4502 130.134 58.208C129.829 57.9658 129.451 57.8348 129.062 57.8367C127.862 57.8367 127.15 58.8918 127.15 60.2897C127.15 61.5948 127.796 62.6643 129.035 62.6643C129.434 62.6604 129.82 62.5212 130.129 62.2694C130.438 62.0177 130.652 61.6684 130.737 61.2788C130.775 61.1145 130.793 60.946 130.79 60.7771V59.6702Z" fill="white"/>
</g>
<defs>
<clipPath id="clip0_1231_179">
<rect width="132" height="66.3651" fill="white"/>
</clipPath>
</defs>
</svg>
