<svg width="19" height="19" viewBox="0 0 19 19" fill="none" xmlns="http://www.w3.org/2000/svg">
<path d="M5.19689 2.44149C5.15889 2.46999 5.13039 2.72649 5.13039 3.00199V3.50549L4.11389 3.53399L3.08789 3.56249V10.07V16.5775H8.45539H13.8229L13.8514 16.036L13.8799 15.4945L14.8964 15.466L15.9129 15.4375L15.9414 9.85149L15.9604 4.25599L15.0389 3.31549L14.1079 2.37499H9.68089C7.24889 2.37499 5.22539 2.40349 5.19689 2.44149ZM14.3861 3.8L15.2004 4.61429V9.70899V14.6571H10.5861H5.97182V8.95715V3.00199L9.68089 2.98572H13.5718L14.3861 3.8ZM5.14939 9.70899L5.17789 15.4375L9.33889 15.466L13.3004 15.4945V15.7429V16.036H8.45539H3.80039V10.07V4.25599H4.34325H5.13039L5.14939 9.70899Z" fill="#C4C4C4"/>
</svg>
