<svg width="35" height="35" viewBox="0 0 35 35" fill="none" xmlns="http://www.w3.org/2000/svg">
<path d="M9.5725 4.49748C9.5025 4.54998 9.45 5.02248 9.45 5.52998V6.45748L7.5775 6.50998L5.6875 6.56248V18.55V30.5375H15.575H25.4625L25.515 29.54L25.5675 28.5425L27.44 28.49L29.3125 28.4375L29.365 18.1475L29.4 7.83998L27.7025 6.10748L25.9875 4.37498H17.8325C13.3525 4.37498 9.625 4.42748 9.5725 4.49748ZM26.5 7L28 8.5V17.885V27H19.5H11V16.5V5.52998L17.8325 5.5H25L26.5 7ZM9.485 17.885L9.5375 28.4375L17.2025 28.49L24.5 28.5425V29V29.54H15.575H7V18.55V7.83998H8H9.45L9.485 17.885Z" fill="#434542"/>
</svg>
