<svg width="16" height="19" viewBox="0 0 16 19" fill="none" xmlns="http://www.w3.org/2000/svg">
<path d="M3.74461 0.43723C3.43021 0.676676 3.15328 0.884889 3.13038 0.901546C3.09498 0.924449 3.66757 1.12017 8.16705 2.62139C13.0705 4.25586 13.2475 4.31624 13.3995 4.41618C13.6472 4.58484 13.8263 4.83053 13.9408 5.16575C13.9762 5.27194 13.9783 5.5322 13.9887 10.8291L13.9991 16.3822L14.6591 15.8887L15.3192 15.3953L15.3213 10.3357C15.3213 4.82844 15.3275 5.10953 15.2067 4.72642C15.0485 4.22463 14.732 3.77697 14.3093 3.4584C13.9804 3.20855 14.0574 3.2377 9.02489 1.56158C6.44305 0.701661 4.32552 -0.00209808 4.32344 -1.71661e-05C4.31928 -1.71661e-05 4.05901 0.197786 3.74461 0.43723Z" fill="#C4C4C4"/>
<path d="M0.636636 2.76297C0.307659 3.01074 0.039064 3.21895 0.039064 3.2252C0.0369818 3.23145 2.25029 3.97477 4.95706 4.87841C7.66175 5.78206 9.93127 6.55036 9.99998 6.58576C10.1874 6.68154 10.4206 6.92515 10.5268 7.13128C10.7037 7.47691 10.6871 6.8377 10.6933 13.2153L10.6975 18.8828L11.3638 18.3831L12.0301 17.8813L12.0238 12.6302L12.0176 7.37905L11.9634 7.16043C11.7719 6.39212 11.3138 5.80288 10.6454 5.46766C10.5101 5.39895 9.18378 4.94712 5.87944 3.84151C3.36006 2.99825 1.28418 2.30906 1.26752 2.31114C1.24878 2.31114 0.965612 2.51519 0.636636 2.76297Z" fill="#C4C4C4"/>
<path d="M0.00435201 5.25112C0.000187746 5.26569 -0.00189439 7.18334 0.00226988 9.51324C0.00851627 14.173 -0.00189438 13.7941 0.131362 14.1897C0.335411 14.7998 0.83304 15.364 1.40979 15.6389C1.55554 15.7076 8.55983 18.05 8.62021 18.05C8.65561 18.05 8.65769 18.0063 8.65769 17.4066V16.7632L5.37417 15.668C3.494 15.0413 2.04484 14.5458 1.98446 14.5124C1.76167 14.3833 1.55554 14.1501 1.44519 13.8982C1.32234 13.6192 1.32651 13.8191 1.33275 9.56113L1.339 5.66338L0.693537 5.44267C0.339575 5.32191 0.0397482 5.22405 0.0314197 5.22405C0.0230912 5.22405 0.0105984 5.23654 0.00435201 5.25112Z" fill="#C4C4C4"/>
<path d="M4.03516 8.78242C4.03516 11.1935 4.03308 11.1644 4.14968 11.5225C4.35164 12.1409 4.80555 12.6781 5.37813 12.9737C5.50931 13.0425 6.02359 13.2236 7.11463 13.5921C7.9683 13.8795 8.67206 14.1148 8.68248 14.1148C8.70954 14.1148 8.7033 12.8072 8.67623 12.7926C8.66374 12.7843 8.10156 12.5969 7.42487 12.3741C6.74818 12.1513 6.14644 11.9473 6.08814 11.9202C5.84869 11.8078 5.62382 11.5746 5.50098 11.3143C5.36148 11.0228 5.36772 11.1227 5.36772 8.95732V6.99595L4.85344 6.82938C4.56818 6.73777 4.26836 6.6399 4.18715 6.61075L4.03516 6.5587V8.78242Z" fill="#C4C4C4"/>
</svg>
