<svg width="22" height="26" viewBox="0 0 22 26" fill="none" xmlns="http://www.w3.org/2000/svg">
<path d="M5.13301 0.599245C4.70206 0.927454 4.32247 1.21285 4.29108 1.23569C4.24256 1.26708 5.02741 1.53535 11.1949 3.59308C17.916 5.83347 18.1586 5.91623 18.367 6.05322C18.7066 6.2844 18.952 6.62117 19.109 7.08066C19.1575 7.22621 19.1604 7.58296 19.1746 14.8435L19.1889 22.4551L20.0936 21.7787L20.9983 21.1023L21.0012 14.1671C21.0012 6.61831 21.0098 7.0036 20.8442 6.47847C20.6273 5.79066 20.1935 5.17705 19.6142 4.74039C19.1632 4.39791 19.2688 4.43786 12.3707 2.1404C8.83178 0.961702 5.92927 -0.00294685 5.92642 -9.34601e-05C5.92071 -9.34601e-05 5.56396 0.271036 5.13301 0.599245Z" fill="#434542"/>
<path d="M0.873785 3.78715C0.422854 4.12678 0.0546895 4.41218 0.0546895 4.42074C0.0518355 4.4293 3.08563 5.44817 6.79582 6.68681C10.5032 7.92544 13.614 8.97856 13.7082 9.02708C13.965 9.15836 14.2847 9.49228 14.4302 9.77482C14.6728 10.2486 14.65 9.37241 14.6586 18.1142L14.6643 25.8828L15.5775 25.1978L16.4908 24.51L16.4823 17.3122L16.4737 10.1144L16.3995 9.81478C16.1369 8.76166 15.5091 7.95398 14.5929 7.49449C14.4074 7.4003 12.5894 6.78099 8.06013 5.26552C4.60681 4.10965 1.76138 3.16498 1.73854 3.16784C1.71286 3.16784 1.32472 3.44753 0.873785 3.78715Z" fill="#434542"/>
<path d="M0.00596533 7.19767C0.000257344 7.21764 -0.00259665 9.84617 0.00311134 13.0398C0.0116733 19.427 -0.00259664 18.9076 0.180059 19.4499C0.45975 20.2861 1.14185 21.0595 1.93241 21.4362C2.13219 21.5304 11.733 24.7411 11.8158 24.7411C11.8643 24.7411 11.8672 24.6812 11.8672 23.8593V22.9774L7.36641 21.4762C4.78925 20.6171 2.80288 19.9379 2.72011 19.8922C2.41473 19.7153 2.13219 19.3956 1.98093 19.0503C1.81254 18.6679 1.81825 18.9418 1.82681 13.1054L1.83537 7.76276L0.950636 7.46023C0.465458 7.2947 0.0544832 7.16056 0.0430672 7.16056C0.0316512 7.16056 0.0145273 7.17769 0.00596533 7.19767Z" fill="#434542"/>
<path d="M5.53125 12.038C5.53125 15.343 5.5284 15.303 5.68822 15.7939C5.96506 16.6415 6.58723 17.3779 7.37208 17.7831C7.55188 17.8773 8.25682 18.1256 9.75231 18.6308C10.9224 19.0246 11.8871 19.3471 11.9014 19.3471C11.9385 19.3471 11.9299 17.5548 11.8928 17.5348C11.8757 17.5234 11.1051 17.2665 10.1776 16.9612C9.25 16.6558 8.4252 16.3761 8.34529 16.339C8.01708 16.1849 7.70885 15.8652 7.54046 15.5085C7.34925 15.1089 7.35781 15.2459 7.35781 12.2778V9.58931L6.65287 9.36099C6.26188 9.23542 5.8509 9.10128 5.73959 9.06132L5.53125 8.98997V12.038Z" fill="#434542"/>
</svg>
