<svg width="87" height="44" viewBox="0 0 87 44" fill="none" xmlns="http://www.w3.org/2000/svg">
<g clip-path="url(#clip0_1231_179)">
<path d="M20.9725 4.70586C20.9725 4.70586 17.5389 5.77667 11.6071 9.92339C5.23283 14.3819 0.782512 20.0572 0 21.0892V24.5158C0.444796 23.6191 2.19574 20.4102 6.83433 15.1021C12.7791 8.29129 20.9725 4.70586 20.9725 4.70586ZM8.79708 10.327C13.8852 6.4015 20.4747 3.54916 20.4747 3.54916C20.4747 3.54916 14.7324 5.56133 9.42544 8.85494C7.28148 10.1834 4.37148 12.045 0 16.1399V18.1815C2.75054 15.3666 5.6897 12.7423 8.79708 10.327ZM29.0012 7.33816C29.0012 7.33816 22.5293 11.7532 22.667 23.3049C22.7305 28.7449 24.1025 33.2081 24.3308 33.9118H28.6364C27.3304 31.3696 26.3424 28.6762 25.6946 25.8925C22.7611 12.8569 29.0012 7.33816 29.0012 7.33816ZM7.10144 8.49722C12.6767 5.05887 18.8273 2.96786 18.8273 2.96786C18.8273 2.96786 15.7938 3.45737 11.0881 5.37894C3.59249 8.44191 0.448326 11.1519 0 11.559V14.0019C0.331832 13.6041 2.20045 11.5178 7.10144 8.49722ZM19.1886 6.76628C17.7295 7.52996 14.0028 9.78689 9.15362 15.0986C4.57858 20.1208 0.72603 26.6491 0 27.907V30.7476C0.711909 29.192 4.44561 21.281 9.33131 15.634C14.4594 9.70687 17.8354 7.49584 19.1886 6.76628ZM29.3248 -0.000976562H0V8.81022C0.941367 8.1901 5.70704 5.19773 12.7508 3.20673C17.5847 1.84057 24.3661 0.561491 29.3248 -0.000976562ZM25.1651 7.56173C25.1651 7.56173 18.2967 12.5121 15.8432 22.9449C14.4747 28.7684 15.2407 33.2081 15.3725 33.9083H18.0484C17.9154 33.5552 17.1647 31.3925 17.0435 27.048C16.7093 15.1009 25.1651 7.56173 25.1651 7.56173ZM26.1912 8.14068C26.1912 8.14068 19.0133 13.9842 18.5638 25.3571C18.3755 30.1628 19.4616 33.4693 19.6157 33.9118H22.6752C22.4916 33.4646 21.7338 31.4583 21.2008 27.7658C19.3227 14.6973 26.1912 8.14068 26.1912 8.14068ZM22.5787 6.31207C22.5787 6.31207 18.6379 7.95123 12.4096 14.6079C5.6482 21.834 1.01079 32.781 0.541286 33.9118H3.87255C4.10789 32.6609 6.07064 23.2755 12.186 15.8128C17.8507 8.89965 22.5787 6.31207 22.5787 6.31207ZM26.9937 21.7446C28.0986 28.9825 30.352 33.2375 30.7298 33.9118H33.9645V4.86119C33.4103 5.24597 25.3569 11.0201 26.9937 21.7446ZM22.6234 8.23599C22.6234 8.23599 18.7873 11.1778 14.996 18.271C11.2046 25.3642 11.034 32.9798 11.0269 33.9212H13.4698C13.398 33.1952 12.9991 28.4966 14.0581 23.9839C16.5128 13.5382 22.6234 8.23599 22.6234 8.23599ZM21.2396 8.32542C21.2396 8.32542 17.6718 10.1987 12.0519 18.7617C8.14283 24.7193 6.19655 32.7645 5.93297 33.9177H9.06066C9.03477 33.1999 8.95711 28.5872 10.8034 23.5791C14.6842 13.0476 21.2396 8.31954 21.2396 8.31954V8.32542Z" fill="white"/>
<path d="M54.2941 -0.000976562C53.8418 -0.000353948 53.4082 0.179609 53.0883 0.499454C52.7685 0.819299 52.5885 1.25292 52.5879 1.70525V32.335C52.5882 32.7693 52.7609 33.1858 53.068 33.4929C53.3751 33.8 53.7915 33.9727 54.2259 33.973C55.1531 33.973 55.9662 33.2069 55.9662 32.335V18.4322H60.8484C61.2899 18.4158 61.7079 18.2288 62.0145 17.9106C62.3211 17.5925 62.4924 17.1678 62.4924 16.7259C62.4924 16.2841 62.3211 15.8594 62.0145 15.5412C61.7079 15.2231 61.2899 15.0361 60.8484 15.0197H55.9662V3.41148H60.8484C61.2899 3.39508 61.7079 3.20814 62.0145 2.88995C62.3211 2.57176 62.4924 2.14711 62.4924 1.70525C62.4924 1.26339 62.3211 0.838741 62.0145 0.520554C61.7079 0.202367 61.2899 0.0154252 60.8484 -0.000976562L54.2941 -0.000976562ZM53.4069 32.335V1.70525C53.4084 1.47085 53.5026 1.24657 53.6687 1.08126C53.8349 0.915955 54.0597 0.823025 54.2941 0.82272H60.8484C61.0783 0.83109 61.2959 0.928293 61.4556 1.09388C61.6153 1.25946 61.7045 1.48052 61.7045 1.71055C61.7045 1.94057 61.6153 2.16163 61.4556 2.32722C61.2959 2.4928 61.0783 2.59 60.8484 2.59837H55.1472V15.8375H60.8484C61.0837 15.8375 61.3094 15.931 61.4758 16.0974C61.6421 16.2638 61.7356 16.4895 61.7356 16.7248C61.7356 16.9601 61.6421 17.1858 61.4758 17.3521C61.3094 17.5185 61.0837 17.612 60.8484 17.612H55.1472V32.335C55.1472 32.7633 54.7083 33.1587 54.2259 33.1587C54.0082 33.1574 53.7999 33.0701 53.6465 32.9158C53.493 32.7614 53.4069 32.5526 53.4069 32.335Z" fill="white"/>
<path d="M65.8305 -0.00077635C65.378 -0.00015455 64.9443 0.179771 64.6242 0.499582C64.3042 0.819394 64.124 1.25302 64.123 1.70545V32.1975C64.1237 32.6502 64.3038 33.0841 64.6238 33.4042C64.9439 33.7242 65.3778 33.9043 65.8305 33.9049H72.3835C72.8362 33.9043 73.2701 33.7242 73.5902 33.4042C73.9102 33.0841 74.0903 32.6502 74.091 32.1975C74.091 31.9749 74.0466 31.7546 73.9604 31.5494C73.8741 31.3442 73.7478 31.1582 73.5888 31.0025C73.4298 30.8468 73.2412 30.7243 73.0343 30.6424C72.8273 30.5605 72.6061 30.5207 72.3835 30.5254H67.5426V18.4324H72.3894C72.8421 18.4318 73.276 18.2517 73.5961 17.9316C73.9161 17.6115 74.0962 17.1776 74.0968 16.725C74.0968 15.7624 73.3155 14.9505 72.3894 14.9505H67.5426V3.41168H72.3894C72.6188 3.4202 72.8476 3.38238 73.062 3.30047C73.2765 3.21856 73.4722 3.09425 73.6375 2.93497C73.8028 2.77569 73.9343 2.58472 74.0241 2.37346C74.1139 2.1622 74.1602 1.93501 74.1602 1.70545C74.1602 1.4759 74.1139 1.2487 74.0241 1.03744C73.9343 0.826186 73.8028 0.63521 73.6375 0.475931C73.4722 0.316652 73.2765 0.192343 73.062 0.110435C72.8476 0.0285268 72.6188 -0.0092974 72.3894 -0.00077635H65.8305ZM64.9432 32.1975V1.70545C64.9448 1.47105 65.0389 1.24677 65.2051 1.08146C65.3713 0.916155 65.596 0.823226 65.8305 0.82292H72.3835C72.5029 0.818576 72.6218 0.838324 72.7333 0.880985C72.8448 0.923646 72.9466 0.988344 73.0325 1.07122C73.1185 1.15409 73.1868 1.25343 73.2335 1.36331C73.2802 1.47319 73.3043 1.59136 73.3043 1.71075C73.3043 1.83014 73.2802 1.9483 73.2335 2.05818C73.1868 2.16806 73.1185 2.26741 73.0325 2.35028C72.9466 2.43315 72.8448 2.49785 72.7333 2.54051C72.6218 2.58317 72.5029 2.60292 72.3835 2.59857H66.7189V15.7671H72.3847C72.8554 15.7671 73.2731 16.2131 73.2731 16.7226C73.2728 16.958 73.1791 17.1837 73.0125 17.3501C72.8459 17.5164 72.6201 17.6099 72.3847 17.6099H66.7189V31.3421H72.3847C72.4994 31.3386 72.6135 31.3581 72.7206 31.3993C72.8276 31.4405 72.9253 31.5026 73.0081 31.5821C73.0908 31.6615 73.1568 31.7566 73.2024 31.8619C73.2479 31.9672 73.2719 32.0805 73.2731 32.1952C73.2728 32.4307 73.1791 32.6565 73.0126 32.823C72.846 32.9896 72.6202 33.0833 72.3847 33.0836H65.8305C65.5954 33.0833 65.3701 32.9899 65.2038 32.8238C65.0376 32.6577 64.9438 32.4325 64.9432 32.1975Z" fill="white"/>
<path d="M76.9574 -0.000976562C76.505 -0.000354762 76.0712 0.17957 75.7512 0.499382C75.4312 0.819193 75.2509 1.25282 75.25 1.70525V32.1973C75.2506 32.65 75.4307 33.0839 75.7508 33.4039C76.0708 33.724 76.5048 33.9041 76.9574 33.9047H85.2885C85.5109 33.9041 85.7309 33.8593 85.9357 33.7728C86.1406 33.6864 86.3262 33.56 86.4817 33.4011C86.6372 33.2422 86.7595 33.0539 86.8416 32.8472C86.9236 32.6406 86.9637 32.4196 86.9594 32.1973V23.2755C86.952 22.8387 86.7731 22.4224 86.4614 22.1164C86.1496 21.8103 85.7301 21.6392 85.2932 21.6399C84.8588 21.6405 84.4423 21.8134 84.1353 22.1207C83.8282 22.428 83.6555 22.8446 83.6552 23.279V30.4228H78.666V3.20791H83.6505V8.73844C83.6505 9.17286 83.8231 9.58949 84.1303 9.89667C84.4375 10.2038 84.8541 10.3764 85.2885 10.3764C85.7229 10.3764 86.1396 10.2038 86.4467 9.89667C86.7539 9.58949 86.9265 9.17286 86.9265 8.73844V1.637C86.9259 1.20277 86.7531 0.78651 86.446 0.479464C86.139 0.172418 85.7227 -0.000354012 85.2885 -0.000976562L76.9574 -0.000976562ZM76.069 32.1973V1.70525C76.0709 1.47075 76.1652 1.24646 76.3316 1.08119C76.498 0.915915 76.7229 0.823023 76.9574 0.82272H85.2885C85.507 0.82272 85.7165 0.909502 85.871 1.06398C86.0254 1.21845 86.1122 1.42796 86.1122 1.64642V8.73727C86.0918 8.94046 85.9967 9.12883 85.8452 9.26584C85.6938 9.40284 85.4968 9.4787 85.2926 9.4787C85.0884 9.4787 84.8915 9.40284 84.74 9.26584C84.5886 9.12883 84.4934 8.94046 84.473 8.73727V2.38892H77.847V31.2418H84.4683V23.279C84.4683 23.0606 84.5551 22.8511 84.7096 22.6966C84.8641 22.5421 85.0736 22.4553 85.292 22.4553C85.513 22.4544 85.7255 22.5401 85.8839 22.6941C86.0424 22.8481 86.134 23.0581 86.1393 23.279V32.202C86.143 32.316 86.124 32.4296 86.0832 32.5362C86.0424 32.6427 85.9807 32.74 85.9018 32.8223C85.8228 32.9047 85.7282 32.9704 85.6235 33.0156C85.5188 33.0609 85.4061 33.0847 85.292 33.0857H76.9574C76.7223 33.0848 76.4971 32.9908 76.3311 32.8244C76.165 32.6579 76.0716 32.4324 76.0713 32.1973H76.069Z" fill="white"/>
<path d="M47.6455 0.958041L47.6243 0.996873C47.6243 0.996873 44.0883 13.6406 43.4376 15.9705C42.7692 13.6406 39.1003 0.859198 39.1003 0.859198L39.0661 0.803893C38.6908 0.262606 38.2236 -0.000976562 37.6352 -0.000976562C37.2008 -0.000665365 36.7843 0.171969 36.477 0.479049C36.1697 0.786128 35.9967 1.20257 35.9961 1.637V32.335C36.0075 32.762 36.1852 33.1676 36.4912 33.4656C36.7973 33.7635 37.2075 33.9302 37.6347 33.9302C38.0618 33.9302 38.472 33.7635 38.7781 33.4656C39.0841 33.1676 39.2618 32.762 39.2732 32.335V15.2386L43.4964 28.7178C43.4964 28.7178 46.4441 18.9299 47.4972 15.348C47.5255 19.45 47.4972 32.3373 47.4972 32.3373C47.5065 32.7758 47.6875 33.1931 48.0013 33.4994C48.3151 33.8058 48.7367 33.9767 49.1752 33.9753C49.6095 33.9747 50.0257 33.8019 50.3328 33.4949C50.6398 33.1878 50.8126 32.7716 50.8132 32.3373V1.637C50.8126 1.20237 50.6395 0.785747 50.3319 0.478633C50.0244 0.17152 49.6075 -0.00097701 49.1729 -0.000976562C48.4963 -0.000976562 47.9821 0.321442 47.6455 0.958041ZM49.1752 0.818013C49.3937 0.818013 49.6032 0.904795 49.7577 1.05927C49.9122 1.21374 49.9989 1.42325 49.9989 1.64171V32.335C49.9989 32.5535 49.9122 32.763 49.7577 32.9174C49.6032 33.0719 49.3937 33.1587 49.1752 33.1587C48.7234 33.1587 48.2998 32.7916 48.2998 32.335V9.49154C48.2998 9.49154 44.1048 23.738 43.4753 25.8949C42.7975 23.7485 38.4778 9.64804 38.4778 9.64804V32.335C38.4738 32.5553 38.3833 32.7651 38.2259 32.9192C38.0684 33.0733 37.8567 33.1593 37.6364 33.1587C37.418 33.1587 37.2085 33.0719 37.054 32.9174C36.8995 32.763 36.8127 32.5535 36.8127 32.335V1.637C36.8127 1.41854 36.8995 1.20903 37.054 1.05456C37.2085 0.900088 37.418 0.813306 37.6364 0.813306C37.8565 0.813306 38.0953 0.866258 38.353 1.21692L43.4494 18.9711C43.4494 18.9711 48.3621 1.41107 48.388 1.31223C48.6281 0.880379 48.9187 0.82272 49.1729 0.82272L49.1752 0.818013Z" fill="white"/>
<path d="M0.00585938 36.0409C0.48476 35.9565 0.970504 35.9171 1.45674 35.9232C2.20395 35.9232 2.75112 36.0962 3.10414 36.4092C3.27481 36.5635 3.40985 36.7531 3.49986 36.9648C3.58988 37.1765 3.63273 37.4053 3.62542 37.6353C3.62542 38.1648 3.46892 38.5826 3.16532 38.8861C2.76524 39.3121 2.11335 39.5286 1.37555 39.5286C1.1711 39.5351 0.966589 39.5181 0.766014 39.478V41.8197H0.00585938V36.0409ZM0.761307 38.8567C0.966703 38.9026 1.17693 38.9231 1.38732 38.9179C2.30868 38.9179 2.85585 38.4649 2.85585 37.6741C2.85585 36.8834 2.30868 36.5186 1.47439 36.5186C1.23531 36.5166 0.996563 36.5371 0.761307 36.5798V38.8567ZM7.99219 40.6736C7.99219 41.1078 8.0016 41.4902 8.02749 41.8197H7.3497L7.30616 41.1337H7.28851C7.14781 41.3765 6.94457 41.5772 6.69994 41.7149C6.45532 41.8525 6.17826 41.922 5.89764 41.9162C5.23751 41.9162 4.44676 41.542 4.44676 40.0734V37.6141H5.21162V39.9346C5.21162 40.7336 5.46344 41.2819 6.15299 41.2819C6.37215 41.2781 6.58516 41.2088 6.76464 41.083C6.94413 40.9572 7.0819 40.7806 7.16025 40.5759C7.20825 40.4513 7.23182 40.3187 7.22968 40.1852V37.6141H7.99454L7.99219 40.6736ZM9.26186 35.6537H10.0267V38.2872H10.0432C10.3127 37.8165 10.7998 37.5212 11.4776 37.5212C12.5202 37.5212 13.2509 38.3908 13.2509 39.6592C13.2509 41.1713 12.2942 41.9197 11.3564 41.9197C10.748 41.9197 10.2691 41.6844 9.94435 41.129H9.9267L9.88433 41.8197H9.22655C9.25244 41.5326 9.26186 41.1137 9.26186 40.7336V35.6537ZM10.0267 40.1382C10.0264 40.2313 10.0347 40.3243 10.0514 40.4159C10.1166 40.6713 10.2648 40.8978 10.4726 41.0599C10.6805 41.222 10.9363 41.3104 11.1999 41.3113C12.0083 41.3113 12.4766 40.6594 12.4766 39.6945C12.4766 38.8426 12.0424 38.1213 11.2258 38.1213C10.9027 38.1381 10.5983 38.2782 10.3752 38.5126C10.1522 38.747 10.0275 39.058 10.0267 39.3815V40.1382ZM14.2064 35.6537H14.9713V41.8197H14.2064V35.6537ZM16.6045 36.8434C16.4744 36.841 16.3505 36.7871 16.2601 36.6934C16.1698 36.5997 16.1203 36.474 16.1227 36.3439C16.125 36.2137 16.1789 36.0898 16.2726 35.9995C16.3663 35.9091 16.492 35.8597 16.6222 35.862C16.6867 35.8597 16.7509 35.8707 16.811 35.8943C16.8711 35.9179 16.9256 35.9536 16.9713 35.9992C17.017 36.0447 17.0528 36.0992 17.0766 36.1592C17.1003 36.2192 17.1115 36.2835 17.1093 36.348C17.1115 36.4136 17.1001 36.479 17.076 36.54C17.0518 36.6011 17.0154 36.6566 16.969 36.703C16.9225 36.7494 16.8671 36.7859 16.806 36.81C16.7449 36.8341 16.6796 36.8455 16.6139 36.8434H16.6045ZM16.2386 41.8197V37.6141H17.0034V41.8197H16.2386ZM21.2702 41.6726C20.8893 41.8378 20.478 41.9208 20.0629 41.9162C18.7932 41.9162 17.9683 41.0548 17.9683 39.7604C17.9683 38.4661 18.8544 37.5176 20.2276 37.5176C20.5931 37.5121 20.9552 37.5894 21.2866 37.7436L21.1125 38.326C20.838 38.1878 20.5337 38.1191 20.2264 38.126C19.2615 38.126 18.7402 38.8485 18.7402 39.7251C18.7402 40.6995 19.3663 41.2996 20.2005 41.2996C20.5254 41.3036 20.8471 41.2348 21.1419 41.0984L21.2702 41.6726ZM28.1186 41.6373C27.8492 41.7773 27.2843 41.9162 26.5713 41.9162C24.9239 41.9162 23.686 40.8724 23.686 38.9438C23.686 37.1011 24.9297 35.8667 26.7454 35.8667C27.4667 35.8667 27.9362 36.0232 28.1363 36.1279L27.9445 36.7445C27.5757 36.5754 27.1734 36.4921 26.7678 36.501C25.3945 36.501 24.4826 37.38 24.4826 38.9179C24.4826 40.3606 25.3063 41.2713 26.7242 41.2713C27.1513 41.2785 27.5752 41.1955 27.968 41.0278L28.1186 41.6373ZM30.6474 41.9162C29.5177 41.9162 28.6317 41.0819 28.6317 39.7522C28.6317 38.3402 29.5613 37.5165 30.7168 37.5165C31.9253 37.5165 32.7419 38.3943 32.7419 39.6722C32.7419 41.2372 31.6558 41.915 30.6568 41.915L30.6474 41.9162ZM30.6733 41.3419C31.404 41.3419 31.9512 40.6559 31.9512 39.6945C31.9512 38.9826 31.5982 38.0872 30.6909 38.0872C29.7837 38.0872 29.4048 38.9214 29.4048 39.7204C29.4048 40.6418 29.9261 41.3372 30.665 41.3372L30.6733 41.3419ZM33.7068 38.7532C33.7068 38.3107 33.6892 37.9624 33.6727 37.6153H34.3411L34.3764 38.2931H34.4023C34.5292 38.0525 34.7211 37.8524 34.9562 37.7155C35.1913 37.5786 35.46 37.5105 35.7319 37.5188C35.9917 37.5185 36.2451 37.5997 36.4562 37.7511C36.6673 37.9025 36.8256 38.1164 36.9086 38.3625H36.9263C37.0435 38.147 37.2066 37.9598 37.404 37.8142C37.6668 37.6103 37.9931 37.5057 38.3254 37.5188C38.8902 37.5188 39.7163 37.8848 39.7163 39.3451V41.8162H38.9691V39.4392C38.9691 38.6214 38.6643 38.1448 38.0559 38.1448C37.6123 38.1448 37.2828 38.4661 37.144 38.832C37.1052 38.9555 37.0846 39.0839 37.0828 39.2133V41.8197H36.3356V39.3015C36.3356 38.6237 36.0402 38.146 35.4578 38.146C34.9871 38.146 34.6341 38.5284 34.5105 38.9109C34.4678 39.0309 34.447 39.1577 34.4493 39.285V41.8197H33.7021L33.7068 38.7532ZM40.9553 38.9885C40.9553 38.4496 40.9459 38.0154 40.92 37.6153H41.6072L41.6496 38.3366H41.6673C41.972 37.8142 42.4757 37.5129 43.1534 37.5129C44.1795 37.5129 44.9444 38.3743 44.9444 39.651C44.9444 41.1631 44.0136 41.9115 43.0322 41.9115C42.4674 41.9115 41.9885 41.6679 41.7379 41.2502H41.7214V43.5377H40.9565L40.9553 38.9885ZM41.7202 40.1099C41.7184 40.2153 41.7298 40.3204 41.7543 40.4229C41.8173 40.6777 41.9636 40.904 42.17 41.0661C42.3764 41.2281 42.631 41.3165 42.8934 41.3172C43.7018 41.3172 44.1713 40.6571 44.1713 39.6922C44.1713 38.8497 43.7359 38.1272 42.9275 38.1272C42.6566 38.1328 42.3952 38.2283 42.1845 38.3987C41.9739 38.5691 41.8258 38.8048 41.7638 39.0685C41.7412 39.1716 41.7267 39.2762 41.7202 39.3815V40.1099ZM48.864 40.816C48.8599 41.1527 48.88 41.4893 48.924 41.8232H48.2451L48.1745 41.2937H48.1486C48.0002 41.4936 47.8058 41.6549 47.582 41.7638C47.3581 41.8728 47.1113 41.9263 46.8624 41.9197C46.0117 41.9197 45.5763 41.3196 45.5763 40.7112C45.5763 39.6945 46.48 39.138 48.1062 39.1462V39.0603C48.1062 38.7073 48.0097 38.0777 47.1495 38.0872C46.7594 38.0832 46.3762 38.1915 46.0458 38.399L45.8658 37.8895C46.2882 37.6451 46.7686 37.5187 47.2566 37.5235C48.551 37.5235 48.8652 38.4013 48.8652 39.245L48.864 40.816ZM48.1156 39.6769C47.2813 39.6592 46.3341 39.8075 46.3341 40.6183C46.3341 41.1231 46.6647 41.349 47.0472 41.349C47.2722 41.3566 47.4939 41.2922 47.6799 41.1653C47.8659 41.0383 48.0066 40.8553 48.0815 40.643C48.1055 40.5645 48.117 40.4827 48.1156 40.4006V39.6769ZM50.089 38.7555C50.089 38.3131 50.0807 37.9648 50.0537 37.6177H50.7315L50.775 38.3037H50.7926C50.9325 38.06 51.1355 37.8587 51.3804 37.721C51.6252 37.5832 51.9027 37.5142 52.1835 37.5212C52.766 37.5212 53.6697 37.8742 53.6697 39.3121V41.8197H52.9048V39.3957C52.9048 38.7179 52.653 38.1436 51.9317 38.1436C51.7002 38.1499 51.4765 38.2289 51.2924 38.3693C51.1082 38.5098 50.9729 38.7046 50.9056 38.9262C50.8697 39.0403 50.8522 39.1595 50.8538 39.2792V41.8197H50.089V38.7555ZM55.077 37.6177L55.9902 40.1029C56.0937 40.3806 56.1984 40.7112 56.2679 40.963H56.2855C56.3632 40.7112 56.4503 40.39 56.555 40.0852L57.3893 37.6141H58.1977L57.0504 40.6124C56.5032 42.055 56.129 42.794 55.6066 43.2541C55.3382 43.492 55.0146 43.6591 54.6652 43.7401L54.4816 43.0976C54.7293 43.0238 54.9576 42.896 55.15 42.7234C55.4253 42.4913 55.6452 42.2007 55.7937 41.8726C55.8257 41.816 55.8465 41.7536 55.8548 41.6891C55.8484 41.6219 55.8275 41.5569 55.7937 41.4984L54.2463 37.6153L55.077 37.6177ZM60.7523 35.9703H61.5172V41.1843H64.02V41.8185H60.7535L60.7523 35.9703ZM65.2014 36.8481C65.0713 36.8457 64.9474 36.7918 64.8571 36.6981C64.7667 36.6044 64.7172 36.4787 64.7196 36.3486C64.7219 36.2184 64.7759 36.0946 64.8695 36.0042C64.9632 35.9138 65.089 35.8644 65.2191 35.8667C65.2836 35.8644 65.3479 35.8754 65.4079 35.899C65.468 35.9226 65.5226 35.9583 65.5683 36.0039C65.6139 36.0494 65.6498 36.1039 65.6735 36.1639C65.6973 36.2239 65.7084 36.2882 65.7063 36.3527C65.7084 36.4184 65.697 36.4839 65.6728 36.545C65.6486 36.6062 65.6121 36.6617 65.5655 36.7082C65.5189 36.7546 65.4633 36.791 65.4021 36.8151C65.3409 36.8391 65.2754 36.8504 65.2097 36.8481H65.2014ZM64.8367 41.8197V37.6141H65.6015V41.8197H64.8367ZM66.87 38.752C66.87 38.3096 66.8535 37.9613 66.8359 37.6141H67.5043L67.5396 38.2919H67.5655C67.6926 38.0515 67.8846 37.8516 68.1196 37.7147C68.3546 37.5779 68.6233 37.5096 68.8951 37.5176C69.1549 37.5175 69.4081 37.5988 69.6192 37.7502C69.8303 37.9015 69.9886 38.1153 70.0718 38.3613H70.0883C70.2055 38.1454 70.3691 37.9582 70.5672 37.813C70.83 37.6091 71.1563 37.5045 71.4886 37.5176C72.0523 37.5176 72.8783 37.8836 72.8783 39.3439V41.815H72.1311V39.4392C72.1311 38.6214 71.8275 38.1448 71.218 38.1448C70.7755 38.1448 70.4449 38.4661 70.306 38.832C70.2672 38.9555 70.2466 39.0839 70.2448 39.2133V41.8197H69.4976V39.3015C69.4976 38.6237 69.2023 38.146 68.6198 38.146C68.1491 38.146 67.7961 38.5284 67.6725 38.9109C67.6298 39.0309 67.6091 39.1577 67.6114 39.285V41.8197H66.8641L66.87 38.752ZM74.4857 36.8398C74.3555 36.8375 74.2317 36.7836 74.1413 36.6899C74.0509 36.5962 74.0015 36.4705 74.0038 36.3403C74.0062 36.2102 74.0601 36.0863 74.1538 35.9959C74.2475 35.9056 74.3732 35.8561 74.5033 35.8585C74.5677 35.8563 74.6319 35.8675 74.6918 35.8911C74.7517 35.9148 74.8062 35.9505 74.8517 35.9961C74.8973 36.0416 74.933 36.0961 74.9567 36.156C74.9803 36.2159 74.9914 36.2801 74.9893 36.3444C74.9916 36.4101 74.9804 36.4756 74.9563 36.5367C74.9322 36.5979 74.8958 36.6534 74.8493 36.6999C74.8029 36.7463 74.7473 36.7827 74.6862 36.8068C74.625 36.8309 74.5596 36.8421 74.4939 36.8398H74.4857ZM74.1209 41.8197V37.6141H74.8858V41.8197H74.1209ZM77.0744 36.6057V37.6141H78.17V38.1966H77.0744V40.4641C77.0744 40.9866 77.2227 41.2819 77.6475 41.2819C77.7972 41.2879 77.947 41.2701 78.0911 41.229L78.1264 41.8114C77.9079 41.8839 77.6788 41.9193 77.4486 41.9162C77.2965 41.9231 77.1446 41.8981 77.0028 41.8427C76.8609 41.7874 76.7322 41.703 76.6249 41.5949C76.4167 41.3596 76.3296 40.9866 76.3296 40.49V38.1966H75.6777V37.6141H76.3296V36.8398L77.0744 36.6057ZM79.4126 39.8463C79.429 40.8818 80.0809 41.3078 80.8458 41.3078C81.2444 41.3188 81.641 41.2475 82.0107 41.0984L82.1496 41.6373C81.7034 41.8264 81.222 41.9182 80.7375 41.9068C79.4526 41.9068 78.6701 41.0466 78.6701 39.7887C78.6701 38.5308 79.4255 37.5117 80.6516 37.5117C82.0249 37.5117 82.3814 38.7202 82.3814 39.4933C82.384 39.6155 82.3749 39.7376 82.3543 39.8581L79.4126 39.8463ZM81.6483 39.2992C81.6566 38.8214 81.4483 38.0566 80.5963 38.0566C79.8138 38.0566 79.4843 38.7697 79.4196 39.2992H81.6483ZM86.967 35.6514V40.7348C86.967 41.109 86.9753 41.5337 87.0023 41.8209H86.3151L86.2798 41.0913H86.2634C86.028 41.562 85.5244 41.915 84.8384 41.915C83.8205 41.915 83.0298 41.0536 83.0298 39.7769C83.0204 38.3649 83.8994 37.5165 84.9125 37.5165C85.5632 37.5165 85.9986 37.8212 86.181 38.1519H86.1986V35.6537L86.967 35.6514ZM86.2022 39.3274C86.2033 39.2162 86.1914 39.1052 86.1669 38.9968C86.1103 38.7466 85.9701 38.5233 85.7694 38.3637C85.5687 38.2041 85.3196 38.1177 85.0631 38.1189C84.2724 38.1189 83.8029 38.8144 83.8029 39.7357C83.8029 40.5959 84.2288 41.3008 85.0455 41.3008C85.3082 41.2982 85.5623 41.2064 85.7661 41.0405C85.9698 40.8746 86.1111 40.6444 86.1669 40.3876C86.1924 40.2793 86.2042 40.1682 86.2022 40.057V39.3274Z" fill="white"/>
</g>
<defs>
<clipPath id="clip0_1231_179">
<rect width="87" height="43.7406" fill="white"/>
</clipPath>
</defs>
</svg>
